<svg xmlns="http://www.w3.org/2000/svg" xmlns:xlink="http://www.w3.org/1999/xlink" width="500" zoomAndPan="magnify" viewBox="0 0 375 374.999991" height="500" preserveAspectRatio="xMidYMid meet" version="1.0"><defs><g/></defs><g fill="#000000" fill-opacity="1"><g transform="translate(25.600535, 239.989134)"><g><path d="M 13.796875 -39.171875 L 13.796875 -108.859375 L 30.34375 -108.859375 L 30.34375 -55.71875 L 22.0625 -39.171875 Z M 13.796875 -39.171875 "/></g></g></g><g fill="#000000" fill-opacity="1"><g transform="translate(77.084683, 239.989134)"><g><path d="M 21.328125 39.34375 L 21.328125 24.09375 L 9.1875 24.09375 L 9.1875 15.453125 L 41.921875 15.453125 L 41.921875 24.09375 L 29.96875 24.09375 L 29.96875 39.34375 Z M 21.328125 39.34375 "/></g></g></g><g fill="#000000" fill-opacity="1"><g transform="translate(68.810012, 239.989134)"><g><path d="M 5.515625 0 L 5.515625 -15.265625 L 41.734375 -15.265625 L 41.734375 -81.828125 C 41.734375 -86.117188 40.84375 -89.148438 39.0625 -90.921875 C 37.289062 -92.703125 34.628906 -93.59375 31.078125 -93.59375 L 11.578125 -93.59375 L 11.578125 -108.859375 L 35.859375 -108.859375 C 42.347656 -108.859375 47.707031 -106.957031 51.9375 -103.15625 C 56.164062 -99.351562 58.28125 -92.914062 58.28125 -83.84375 L 58.28125 0 Z M 5.515625 0 "/></g></g></g><g fill="#000000" fill-opacity="1"><g transform="translate(128.199208, 239.989134)"><g><path d="M 15.265625 -121.359375 C 11.210938 -121.359375 9.1875 -123.6875 9.1875 -128.34375 C 9.1875 -132.875 11.210938 -135.140625 15.265625 -135.140625 C 17.097656 -135.140625 18.597656 -134.585938 19.765625 -133.484375 C 20.929688 -132.390625 21.515625 -130.675781 21.515625 -128.34375 C 21.515625 -125.894531 20.929688 -124.117188 19.765625 -123.015625 C 18.597656 -121.910156 17.097656 -121.359375 15.265625 -121.359375 Z M 15.265625 -121.359375 "/></g></g></g><g fill="#000000" fill-opacity="1"><g transform="translate(141.806442, 239.989134)"><g><path d="M 58.28125 0 L 58.28125 -93.59375 L 1.84375 -93.59375 L 1.84375 -108.859375 L 91.5625 -108.859375 L 91.5625 -93.59375 L 74.84375 -93.59375 L 74.84375 0 Z M 58.28125 0 "/></g></g></g><g fill="#000000" fill-opacity="1"><g transform="translate(258.013591, 239.989134)"><g><path d="M 54.0625 26.65625 C 50.007812 26.65625 47.984375 24.328125 47.984375 19.671875 C 47.984375 15.140625 50.007812 12.875 54.0625 12.875 C 55.894531 12.875 57.394531 13.425781 58.5625 14.53125 C 59.726562 15.632812 60.3125 17.347656 60.3125 19.671875 C 60.3125 22.003906 59.726562 23.75 58.5625 24.90625 C 57.394531 26.070312 55.894531 26.65625 54.0625 26.65625 Z M 9.1875 24.09375 L 9.1875 15.453125 L 41.921875 15.453125 L 41.921875 24.09375 Z M 53.875 46.34375 C 52.039062 46.34375 50.539062 45.789062 49.375 44.6875 C 48.207031 43.582031 47.625 41.800781 47.625 39.34375 C 47.625 37.019531 48.207031 35.304688 49.375 34.203125 C 50.539062 33.097656 52.039062 32.546875 53.875 32.546875 C 55.71875 32.546875 57.21875 33.097656 58.375 34.203125 C 59.539062 35.304688 60.125 37.019531 60.125 39.34375 C 60.125 41.800781 59.539062 43.582031 58.375 44.6875 C 57.21875 45.789062 55.71875 46.34375 53.875 46.34375 Z M 53.875 46.34375 "/></g></g></g><g fill="#000000" fill-opacity="1"><g transform="translate(237.970495, 239.989134)"><g><path d="M 10.296875 0 L 10.296875 -29.046875 C 10.296875 -40.691406 12.253906 -50.253906 16.171875 -57.734375 C 20.097656 -65.210938 25.554688 -70.789062 32.546875 -74.46875 L 9.1875 -108.859375 L 28.6875 -108.859375 L 69.6875 -47.984375 C 78.632812 -53.378906 83.109375 -64.351562 83.109375 -80.90625 L 83.109375 -108.859375 L 99.65625 -108.859375 L 99.65625 -82.015625 C 99.65625 -70.367188 97.691406 -60.835938 93.765625 -53.421875 C 89.847656 -46.003906 84.394531 -40.394531 77.40625 -36.59375 L 102.234375 0 L 82.75 0 L 40.265625 -63.0625 C 31.316406 -57.550781 26.84375 -46.582031 26.84375 -30.15625 L 26.84375 0 Z M 10.296875 0 "/></g></g></g></svg>