<svg xmlns="http://www.w3.org/2000/svg" xmlns:xlink="http://www.w3.org/1999/xlink" width="500" zoomAndPan="magnify" viewBox="0 0 375 374.999991" height="500" preserveAspectRatio="xMidYMid meet" version="1.0"><defs><g/></defs><g fill="#000000" fill-opacity="1"><g transform="translate(53.632326, 267.112973)"><g><path d="M 101.328125 1.046875 C 92.296875 1.046875 84.546875 -0.515625 78.078125 -3.640625 C 71.617188 -6.773438 67.066406 -12.375 64.421875 -20.4375 C 57.054688 -18.625 49.898438 -17.890625 42.953125 -18.234375 C 36.003906 -18.585938 29.78125 -19.910156 24.28125 -22.203125 C 18.789062 -24.492188 14.410156 -27.691406 11.140625 -31.796875 C 7.878906 -35.898438 6.25 -40.800781 6.25 -46.5 C 6.25 -53.863281 8.613281 -60.671875 13.34375 -66.921875 C 18.070312 -73.179688 24.46875 -78.460938 32.53125 -82.765625 C 40.59375 -87.078125 49.488281 -90.066406 59.21875 -91.734375 L 58.59375 -107.59375 L 75.484375 -107.59375 L 78.8125 -38.78125 C 79.09375 -32.25 80.238281 -27.347656 82.25 -24.078125 C 84.269531 -20.816406 87.050781 -18.660156 90.59375 -17.609375 C 94.132812 -16.566406 98.410156 -16.046875 103.421875 -16.046875 C 111.203125 -16.046875 116.691406 -16.8125 119.890625 -18.34375 C 123.085938 -19.875 124.925781 -22.550781 125.40625 -26.375 C 125.894531 -30.195312 126 -35.65625 125.71875 -42.75 L 123.015625 -118.421875 L 140.328125 -118.421875 L 142.828125 -43.15625 C 142.960938 -36.070312 144.070312 -30.546875 146.15625 -26.578125 C 148.238281 -22.617188 151.015625 -19.875 154.484375 -18.34375 C 157.960938 -16.8125 161.789062 -16.046875 165.96875 -16.046875 C 173.75 -16.046875 179.238281 -16.8125 182.4375 -18.34375 C 185.632812 -19.875 187.472656 -22.550781 187.953125 -26.375 C 188.441406 -30.195312 188.550781 -35.65625 188.28125 -42.75 L 184.3125 -148.875 L 201.203125 -148.875 L 205.375 -44.625 C 205.789062 -34.75 205.128906 -26.40625 203.390625 -19.59375 C 201.648438 -12.78125 197.753906 -7.632812 191.703125 -4.15625 C 185.660156 -0.6875 176.382812 1.046875 163.875 1.046875 C 156.789062 1.046875 151.195312 -0.304688 147.09375 -3.015625 C 143 -5.734375 139.976562 -9.035156 138.03125 -12.921875 C 135.25 -8.335938 130.972656 -4.863281 125.203125 -2.5 C 119.429688 -0.132812 111.472656 1.046875 101.328125 1.046875 Z M 237.265625 0 L 233.109375 -148.875 L 249.984375 -148.875 L 254.15625 0 Z M 61.921875 -36.28125 L 60.046875 -74.4375 C 51.984375 -73.457031 45.207031 -71.613281 39.71875 -68.90625 C 34.226562 -66.195312 30.019531 -63.066406 27.09375 -59.515625 C 24.175781 -55.972656 22.71875 -52.535156 22.71875 -49.203125 C 22.71875 -45.867188 24.003906 -43.191406 26.578125 -41.171875 C 29.148438 -39.160156 32.453125 -37.664062 36.484375 -36.6875 C 40.515625 -35.71875 44.789062 -35.234375 49.3125 -35.234375 C 53.832031 -35.234375 58.035156 -35.582031 61.921875 -36.28125 Z M 114.890625 -129.265625 C 109.328125 -129.265625 105.640625 -131.109375 103.828125 -134.796875 C 102.023438 -138.484375 101.125 -142.410156 101.125 -146.578125 C 101.125 -148.109375 101.226562 -149.738281 101.4375 -151.46875 C 101.644531 -153.207031 101.957031 -155.191406 102.375 -157.421875 L 112.796875 -160.34375 C 111.960938 -155.613281 111.546875 -151.648438 111.546875 -148.453125 C 111.546875 -143.304688 113.285156 -140.734375 116.765625 -140.734375 C 118.847656 -140.734375 120.582031 -141.8125 121.96875 -143.96875 C 123.363281 -146.125 124.128906 -150.46875 124.265625 -157 L 124.265625 -163.25 L 134.28125 -167.015625 L 134.28125 -154.296875 C 134.28125 -152.347656 134.660156 -150.644531 135.421875 -149.1875 C 136.179688 -147.726562 137.816406 -147 140.328125 -147 C 142.828125 -147 144.492188 -147.757812 145.328125 -149.28125 C 146.160156 -150.8125 146.578125 -152.757812 146.578125 -155.125 C 146.578125 -157.488281 146.296875 -159.882812 145.734375 -162.3125 C 145.179688 -164.75 144.421875 -167.148438 143.453125 -169.515625 L 152.828125 -172.4375 C 154.222656 -169.65625 155.367188 -166.59375 156.265625 -163.25 C 157.171875 -159.914062 157.625 -156.859375 157.625 -154.078125 C 157.625 -149.492188 156.335938 -145.359375 153.765625 -141.671875 C 151.191406 -137.992188 147.195312 -136.15625 141.78125 -136.15625 C 137.332031 -136.15625 133.71875 -137.40625 130.9375 -139.90625 C 129.6875 -136.707031 127.632812 -134.132812 124.78125 -132.1875 C 121.9375 -130.238281 118.640625 -129.265625 114.890625 -129.265625 Z M 122.1875 -173.0625 L 120.921875 -209.125 L 132.390625 -209.125 L 133.640625 -173.0625 Z M 122.1875 -173.0625 "/></g></g></g></svg>