<svg xmlns="http://www.w3.org/2000/svg" xmlns:xlink="http://www.w3.org/1999/xlink" width="500" zoomAndPan="magnify" viewBox="0 0 375 374.999991" height="500" preserveAspectRatio="xMidYMid meet" version="1.0"><defs><g/></defs><g fill="#000000" fill-opacity="1"><g transform="translate(70.054687, 103.421275)"><g><path d="M 39.59375 0 L 39.59375 -31.046875 C 39.59375 -34.140625 39.023438 -36.320312 37.890625 -37.59375 C 36.753906 -38.875 34.914062 -39.515625 32.375 -39.515625 L 6.640625 -39.515625 L 6.640625 -49.96875 L 32.875 -49.96875 C 45.65625 -49.96875 52.046875 -44.128906 52.046875 -32.453125 L 52.046875 0 Z M 6.640625 0 L 6.640625 -29.046875 L 19.09375 -29.046875 L 19.09375 0 Z M 6.640625 0 "/></g></g></g><g fill="#000000" fill-opacity="1"><g transform="translate(144.499232, 103.421275)"><g><path d="M 10.046875 19.921875 L 10.046875 11.125 L 4.15625 11.125 L 4.15625 6.890625 L 20.171875 6.890625 L 20.171875 11.125 L 14.28125 11.125 L 14.28125 19.921875 Z M 10.046875 19.921875 "/></g></g></g><g fill="#000000" fill-opacity="1"><g transform="translate(128.315204, 103.421275)"><g><path d="M 5.3125 0 L 5.3125 -13.9375 C 5.3125 -18.476562 6.082031 -22.601562 7.625 -26.3125 C 9.175781 -30.019531 11.503906 -32.757812 14.609375 -34.53125 L 3.3125 -49.96875 L 17.59375 -49.96875 L 35.109375 -24.484375 C 36.160156 -25.648438 36.9375 -27.253906 37.4375 -29.296875 C 37.9375 -31.347656 38.1875 -33.753906 38.1875 -36.515625 L 38.1875 -49.96875 L 50.625 -49.96875 L 50.625 -37.015625 C 50.625 -32.367188 49.820312 -28.175781 48.21875 -24.4375 C 46.613281 -20.707031 44.207031 -17.984375 41 -16.265625 L 53.28125 0 L 39.015625 0 L 20.671875 -26.0625 C 18.734375 -23.570312 17.765625 -19.695312 17.765625 -14.4375 L 17.765625 0 Z M 5.3125 0 "/></g></g></g><g fill="#000000" fill-opacity="1"><g transform="translate(203.589755, 103.421275)"><g><path d="M 10.046875 19.921875 L 10.046875 11.125 L 4.15625 11.125 L 4.15625 6.890625 L 20.171875 6.890625 L 20.171875 11.125 L 14.28125 11.125 L 14.28125 19.921875 Z M 10.046875 19.921875 "/></g></g></g><g fill="#000000" fill-opacity="1"><g transform="translate(208.154482, 103.421275)"><g><path d="M 4.15625 -25.15625 C 4.15625 -26.257812 4.484375 -27.085938 5.140625 -27.640625 C 5.804688 -28.191406 6.640625 -28.46875 7.640625 -28.46875 C 8.578125 -28.46875 9.390625 -28.191406 10.078125 -27.640625 C 10.773438 -27.085938 11.125 -26.257812 11.125 -25.15625 C 11.125 -24.039062 10.773438 -23.207031 10.078125 -22.65625 C 9.390625 -22.101562 8.578125 -21.828125 7.640625 -21.828125 C 6.640625 -21.828125 5.804688 -22.101562 5.140625 -22.65625 C 4.484375 -23.207031 4.15625 -24.039062 4.15625 -25.15625 Z M 4.15625 -25.15625 "/></g></g></g><g fill="#000000" fill-opacity="1"><g transform="translate(184.915882, 103.421275)"><g><path d="M 31.125 1 C 14.25 1 5.8125 -8.160156 5.8125 -26.484375 L 5.8125 -49.96875 L 18.265625 -49.96875 L 18.265625 -26.484375 C 18.265625 -20.554688 19.34375 -16.179688 21.5 -13.359375 C 23.65625 -10.535156 26.890625 -9.125 31.203125 -9.125 C 35.960938 -9.125 39.195312 -10.578125 40.90625 -13.484375 C 42.625 -16.390625 43.484375 -20.722656 43.484375 -26.484375 C 43.484375 -31.734375 42.832031 -35.328125 41.53125 -37.265625 C 40.238281 -39.203125 38.429688 -40.171875 36.109375 -40.171875 C 34.273438 -40.171875 32.539062 -39.988281 30.90625 -39.625 C 29.28125 -39.269531 27.664062 -38.757812 26.0625 -38.09375 L 26.0625 -48.5625 C 27.5 -49 29.296875 -49.476562 31.453125 -50 C 33.609375 -50.53125 35.960938 -50.796875 38.515625 -50.796875 C 42.390625 -50.796875 45.5 -50.078125 47.84375 -48.640625 C 50.195312 -47.203125 51.984375 -45.320312 53.203125 -43 C 54.421875 -40.675781 55.25 -38.128906 55.6875 -35.359375 C 56.132812 -32.585938 56.359375 -29.875 56.359375 -27.21875 C 56.359375 -20.195312 55.359375 -14.625 53.359375 -10.5 C 51.367188 -6.375 48.492188 -3.425781 44.734375 -1.65625 C 40.972656 0.113281 36.4375 1 31.125 1 Z M 31.125 1 "/></g></g></g><g fill="#000000" fill-opacity="1"><g transform="translate(245.002224, 103.421275)"><g><path d="M 34.53125 -49.96875 C 47.3125 -49.96875 53.703125 -44.128906 53.703125 -32.453125 L 53.703125 0 L 41.25 0 L 41.25 -31.046875 C 41.25 -34.140625 40.679688 -36.320312 39.546875 -37.59375 C 38.410156 -38.875 36.570312 -39.515625 34.03125 -39.515625 L 19.09375 -39.515625 L 19.09375 0 L 6.640625 0 L 6.640625 -49.96875 Z M 34.53125 -49.96875 "/></g></g></g><g fill="#000000" fill-opacity="1"><g transform="translate(103.763613, 170.97312)"><g><path d="M 15.828125 -21.453125 C 14.285156 -21.453125 12.898438 -20.976562 11.671875 -20.03125 C 10.441406 -19.09375 9.453125 -17.703125 8.703125 -15.859375 C 7.960938 -14.023438 7.59375 -12.054688 7.59375 -9.953125 C 7.59375 -8.003906 7.988281 -6.554688 8.78125 -5.609375 C 9.582031 -4.671875 10.859375 -4.203125 12.609375 -4.203125 C 14.304688 -4.203125 16.273438 -4.648438 18.515625 -5.546875 L 18.515625 -1 C 16.191406 -0.101562 13.863281 0.34375 11.53125 0.34375 C 8.5625 0.34375 6.253906 -0.523438 4.609375 -2.265625 C 2.972656 -4.003906 2.15625 -6.472656 2.15625 -9.671875 C 2.15625 -12.722656 2.757812 -15.535156 3.96875 -18.109375 C 5.175781 -20.679688 6.796875 -22.632812 8.828125 -23.96875 C 10.859375 -25.300781 13.191406 -25.96875 15.828125 -25.96875 C 17.285156 -25.96875 18.578125 -25.835938 19.703125 -25.578125 C 20.835938 -25.316406 22.050781 -24.832031 23.34375 -24.125 L 21.28125 -19.765625 C 20.039062 -20.453125 19.019531 -20.90625 18.21875 -21.125 C 17.414062 -21.34375 16.617188 -21.453125 15.828125 -21.453125 Z M 15.828125 -21.453125 "/></g></g></g><g fill="#000000" fill-opacity="1"><g transform="translate(125.666178, 170.97312)"><g><path d="M 17.078125 0 L 11.828125 0 L 14.21875 -11.421875 C 14.40625 -12.210938 14.5 -12.90625 14.5 -13.5 C 14.5 -14.9375 13.867188 -15.65625 12.609375 -15.65625 C 11.535156 -15.65625 10.5625 -14.988281 9.6875 -13.65625 C 8.8125 -12.320312 8.125 -10.46875 7.625 -8.09375 L 5.90625 0 L 0.640625 0 L 6.421875 -27.203125 L 11.6875 -27.203125 C 11.226562 -25.097656 10.875 -23.476562 10.625 -22.34375 C 10.382812 -21.21875 9.882812 -19.414062 9.125 -16.9375 L 9.265625 -16.9375 C 9.992188 -17.84375 10.800781 -18.566406 11.6875 -19.109375 C 12.570312 -19.648438 13.597656 -19.921875 14.765625 -19.921875 C 16.367188 -19.921875 17.609375 -19.429688 18.484375 -18.453125 C 19.367188 -17.484375 19.8125 -16.09375 19.8125 -14.28125 C 19.8125 -13.4375 19.675781 -12.390625 19.40625 -11.140625 Z M 17.078125 0 "/></g></g></g><g fill="#000000" fill-opacity="1"><g transform="translate(147.289061, 170.97312)"><g><path d="M 7.09375 0.34375 C 5.382812 0.34375 4.035156 -0.273438 3.046875 -1.515625 C 2.066406 -2.753906 1.578125 -4.492188 1.578125 -6.734375 C 1.578125 -9.035156 1.992188 -11.234375 2.828125 -13.328125 C 3.671875 -15.421875 4.773438 -17.039062 6.140625 -18.1875 C 7.503906 -19.34375 9 -19.921875 10.625 -19.921875 C 11.757812 -19.921875 12.738281 -19.675781 13.5625 -19.1875 C 14.382812 -18.695312 15.019531 -17.984375 15.46875 -17.046875 L 15.609375 -17.046875 L 16.609375 -19.546875 L 20.671875 -19.546875 L 16.5 0 L 12.5 0 L 12.75 -2.53125 L 12.671875 -2.53125 C 11.109375 -0.613281 9.25 0.34375 7.09375 0.34375 Z M 9.15625 -3.90625 C 9.96875 -3.90625 10.742188 -4.296875 11.484375 -5.078125 C 12.234375 -5.859375 12.832031 -6.914062 13.28125 -8.25 C 13.738281 -9.582031 13.96875 -11.09375 13.96875 -12.78125 C 13.96875 -13.613281 13.742188 -14.300781 13.296875 -14.84375 C 12.847656 -15.382812 12.257812 -15.65625 11.53125 -15.65625 C 10.726562 -15.65625 9.96875 -15.234375 9.25 -14.390625 C 8.539062 -13.546875 7.972656 -12.4375 7.546875 -11.0625 C 7.117188 -9.6875 6.90625 -8.328125 6.90625 -6.984375 C 6.90625 -5.953125 7.097656 -5.179688 7.484375 -4.671875 C 7.878906 -4.160156 8.4375 -3.90625 9.15625 -3.90625 Z M 9.15625 -3.90625 "/></g></g></g><g fill="#000000" fill-opacity="1"><g transform="translate(168.562343, 170.97312)"><g><path d="M 8.984375 -3.90625 C 9.742188 -3.90625 10.691406 -4.109375 11.828125 -4.515625 L 11.828125 -0.578125 C 10.523438 0.0351562 8.972656 0.34375 7.171875 0.34375 C 5.421875 0.34375 4.132812 -0.0195312 3.3125 -0.75 C 2.488281 -1.488281 2.078125 -2.625 2.078125 -4.15625 C 2.078125 -4.738281 2.148438 -5.394531 2.296875 -6.125 L 4.296875 -15.546875 L 1.640625 -15.546875 L 2.15625 -18.109375 L 5.578125 -19.578125 L 7.890625 -23.71875 L 11.28125 -23.71875 L 10.421875 -19.546875 L 15.375 -19.546875 L 14.5 -15.546875 L 9.5625 -15.546875 L 7.546875 -6.125 C 7.484375 -5.769531 7.453125 -5.457031 7.453125 -5.1875 C 7.453125 -4.332031 7.960938 -3.90625 8.984375 -3.90625 Z M 8.984375 -3.90625 "/></g></g></g><g fill="#000000" fill-opacity="1"><g transform="translate(183.245627, 170.97312)"><g><path d="M 8.984375 -3.90625 C 9.742188 -3.90625 10.691406 -4.109375 11.828125 -4.515625 L 11.828125 -0.578125 C 10.523438 0.0351562 8.972656 0.34375 7.171875 0.34375 C 5.421875 0.34375 4.132812 -0.0195312 3.3125 -0.75 C 2.488281 -1.488281 2.078125 -2.625 2.078125 -4.15625 C 2.078125 -4.738281 2.148438 -5.394531 2.296875 -6.125 L 4.296875 -15.546875 L 1.640625 -15.546875 L 2.15625 -18.109375 L 5.578125 -19.578125 L 7.890625 -23.71875 L 11.28125 -23.71875 L 10.421875 -19.546875 L 15.375 -19.546875 L 14.5 -15.546875 L 9.5625 -15.546875 L 7.546875 -6.125 C 7.484375 -5.769531 7.453125 -5.457031 7.453125 -5.1875 C 7.453125 -4.332031 7.960938 -3.90625 8.984375 -3.90625 Z M 8.984375 -3.90625 "/></g></g></g><g fill="#000000" fill-opacity="1"><g transform="translate(197.928911, 170.97312)"><g><path d="M 7.09375 0.34375 C 5.382812 0.34375 4.035156 -0.273438 3.046875 -1.515625 C 2.066406 -2.753906 1.578125 -4.492188 1.578125 -6.734375 C 1.578125 -9.035156 1.992188 -11.234375 2.828125 -13.328125 C 3.671875 -15.421875 4.773438 -17.039062 6.140625 -18.1875 C 7.503906 -19.34375 9 -19.921875 10.625 -19.921875 C 11.757812 -19.921875 12.738281 -19.675781 13.5625 -19.1875 C 14.382812 -18.695312 15.019531 -17.984375 15.46875 -17.046875 L 15.609375 -17.046875 L 16.609375 -19.546875 L 20.671875 -19.546875 L 16.5 0 L 12.5 0 L 12.75 -2.53125 L 12.671875 -2.53125 C 11.109375 -0.613281 9.25 0.34375 7.09375 0.34375 Z M 9.15625 -3.90625 C 9.96875 -3.90625 10.742188 -4.296875 11.484375 -5.078125 C 12.234375 -5.859375 12.832031 -6.914062 13.28125 -8.25 C 13.738281 -9.582031 13.96875 -11.09375 13.96875 -12.78125 C 13.96875 -13.613281 13.742188 -14.300781 13.296875 -14.84375 C 12.847656 -15.382812 12.257812 -15.65625 11.53125 -15.65625 C 10.726562 -15.65625 9.96875 -15.234375 9.25 -14.390625 C 8.539062 -13.546875 7.972656 -12.4375 7.546875 -11.0625 C 7.117188 -9.6875 6.90625 -8.328125 6.90625 -6.984375 C 6.90625 -5.953125 7.097656 -5.179688 7.484375 -4.671875 C 7.878906 -4.160156 8.4375 -3.90625 9.15625 -3.90625 Z M 9.15625 -3.90625 "/></g></g></g><g fill="#000000" fill-opacity="1"><g transform="translate(219.202192, 170.97312)"><g><path d="M 9.59375 -25.5625 L 6.9375 -16.328125 L 3.515625 -16.328125 L 4.75 -25.5625 Z M 9.59375 -25.5625 "/></g></g></g><g fill="#000000" fill-opacity="1"><g transform="translate(228.326805, 170.97312)"><g><path d="M 7.09375 0.34375 C 5.382812 0.34375 4.035156 -0.273438 3.046875 -1.515625 C 2.066406 -2.753906 1.578125 -4.492188 1.578125 -6.734375 C 1.578125 -9.035156 1.992188 -11.234375 2.828125 -13.328125 C 3.671875 -15.421875 4.773438 -17.039062 6.140625 -18.1875 C 7.503906 -19.34375 9 -19.921875 10.625 -19.921875 C 11.757812 -19.921875 12.738281 -19.675781 13.5625 -19.1875 C 14.382812 -18.695312 15.019531 -17.984375 15.46875 -17.046875 L 15.609375 -17.046875 L 16.609375 -19.546875 L 20.671875 -19.546875 L 16.5 0 L 12.5 0 L 12.75 -2.53125 L 12.671875 -2.53125 C 11.109375 -0.613281 9.25 0.34375 7.09375 0.34375 Z M 9.15625 -3.90625 C 9.96875 -3.90625 10.742188 -4.296875 11.484375 -5.078125 C 12.234375 -5.859375 12.832031 -6.914062 13.28125 -8.25 C 13.738281 -9.582031 13.96875 -11.09375 13.96875 -12.78125 C 13.96875 -13.613281 13.742188 -14.300781 13.296875 -14.84375 C 12.847656 -15.382812 12.257812 -15.65625 11.53125 -15.65625 C 10.726562 -15.65625 9.96875 -15.234375 9.25 -14.390625 C 8.539062 -13.546875 7.972656 -12.4375 7.546875 -11.0625 C 7.117188 -9.6875 6.90625 -8.328125 6.90625 -6.984375 C 6.90625 -5.953125 7.097656 -5.179688 7.484375 -4.671875 C 7.878906 -4.160156 8.4375 -3.90625 9.15625 -3.90625 Z M 9.15625 -3.90625 "/></g></g></g><g fill="#000000" fill-opacity="1"><g transform="translate(249.600086, 170.97312)"><g><path d="M 17.078125 0 L 11.828125 0 L 14.21875 -11.421875 C 14.40625 -12.210938 14.5 -12.90625 14.5 -13.5 C 14.5 -14.9375 13.867188 -15.65625 12.609375 -15.65625 C 11.535156 -15.65625 10.5625 -14.988281 9.6875 -13.65625 C 8.8125 -12.320312 8.125 -10.46875 7.625 -8.09375 L 5.90625 0 L 0.640625 0 L 6.421875 -27.203125 L 11.6875 -27.203125 C 11.226562 -25.097656 10.875 -23.476562 10.625 -22.34375 C 10.382812 -21.21875 9.882812 -19.414062 9.125 -16.9375 L 9.265625 -16.9375 C 9.992188 -17.84375 10.800781 -18.566406 11.6875 -19.109375 C 12.570312 -19.648438 13.597656 -19.921875 14.765625 -19.921875 C 16.367188 -19.921875 17.609375 -19.429688 18.484375 -18.453125 C 19.367188 -17.484375 19.8125 -16.09375 19.8125 -14.28125 C 19.8125 -13.4375 19.675781 -12.390625 19.40625 -11.140625 Z M 17.078125 0 "/></g></g></g><g fill="#000000" fill-opacity="1"><g transform="translate(14.680455, 276.184215)"><g><path d="M 21.5 0.828125 C 16.1875 0.828125 11.894531 -1.144531 8.625 -5.09375 C 5.363281 -9.050781 3.734375 -14.851562 3.734375 -22.5 C 3.734375 -30.1875 5.40625 -36.035156 8.75 -40.046875 C 12.101562 -44.054688 16.65625 -46.0625 22.40625 -46.0625 C 25.613281 -46.0625 28.238281 -45.492188 30.28125 -44.359375 C 32.332031 -43.222656 34.050781 -41.523438 35.4375 -39.265625 L 36.015625 -39.265625 C 36.242188 -40.203125 36.59375 -41.238281 37.0625 -42.375 C 37.53125 -43.507812 38.097656 -44.488281 38.765625 -45.3125 L 48.96875 -45.3125 C 48.363281 -43.539062 47.726562 -40.96875 47.0625 -37.59375 C 46.394531 -34.21875 46.0625 -30.675781 46.0625 -26.96875 L 46.0625 -14.359375 C 46.0625 -12.472656 46.40625 -11.195312 47.09375 -10.53125 C 47.789062 -9.875 48.582031 -9.546875 49.46875 -9.546875 C 49.851562 -9.546875 50.296875 -9.585938 50.796875 -9.671875 C 51.296875 -9.753906 51.65625 -9.847656 51.875 -9.953125 L 51.875 -0.25 C 51.488281 0.03125 50.6875 0.28125 49.46875 0.5 C 48.25 0.71875 47.195312 0.828125 46.3125 0.828125 C 43.539062 0.828125 41.296875 0.332031 39.578125 -0.65625 C 37.867188 -1.65625 36.546875 -3.425781 35.609375 -5.96875 L 34.78125 -5.96875 C 33.507812 -4.09375 31.820312 -2.488281 29.71875 -1.15625 C 27.613281 0.164062 24.875 0.828125 21.5 0.828125 Z M 25.234375 -9.046875 C 28.660156 -9.046875 31.035156 -10.082031 32.359375 -12.15625 C 33.691406 -14.226562 34.414062 -17.535156 34.53125 -22.078125 L 34.53125 -22.578125 C 34.53125 -27.003906 33.851562 -30.378906 32.5 -32.703125 C 31.144531 -35.023438 28.664062 -36.1875 25.0625 -36.1875 C 22.132812 -36.1875 19.945312 -35.007812 18.5 -32.65625 C 17.0625 -30.3125 16.34375 -26.894531 16.34375 -22.40625 C 16.34375 -13.5 19.304688 -9.046875 25.234375 -9.046875 Z M 32.28125 -49.390625 C 28.46875 -49.441406 25.6875 -50.40625 23.9375 -52.28125 C 22.195312 -54.164062 21.328125 -56.519531 21.328125 -59.34375 C 21.328125 -61.226562 21.820312 -62.773438 22.8125 -63.984375 C 23.8125 -65.203125 25.226562 -65.8125 27.0625 -65.8125 C 28.382812 -65.8125 29.488281 -65.410156 30.375 -64.609375 C 31.257812 -63.804688 31.703125 -62.71875 31.703125 -61.34375 C 31.703125 -59.738281 31.226562 -58.519531 30.28125 -57.6875 C 29.34375 -56.851562 28.1875 -56.382812 26.8125 -56.28125 C 26.8125 -55.394531 27.28125 -54.617188 28.21875 -53.953125 C 29.15625 -53.285156 30.507812 -52.925781 32.28125 -52.875 Z M 32.28125 -49.390625 "/></g></g></g><g fill="#000000" fill-opacity="1"><g transform="translate(68.376404, 276.184215)"><g><path d="M 18.84375 -18.84375 C 18.84375 -15.570312 19.4375 -13.117188 20.625 -11.484375 C 21.8125 -9.847656 23.675781 -9.03125 26.21875 -9.03125 C 29.625 -9.03125 32.097656 -10.195312 33.640625 -12.53125 C 35.179688 -14.875 35.953125 -18.695312 35.953125 -24 L 35.953125 -45.3125 L 48.3125 -45.3125 L 48.3125 0 L 38.953125 0 L 37.203125 -6.078125 L 36.59375 -6.078125 C 35.457031 -3.785156 34.078125 -2.0625 32.453125 -0.90625 C 30.835938 0.238281 28.84375 0.8125 26.46875 0.8125 C 24.789062 0.8125 23.25 0.503906 21.84375 -0.109375 C 20.4375 -0.734375 19.300781 -1.644531 18.4375 -2.84375 L 18.640625 0.609375 L 18.84375 6.96875 L 18.84375 19.9375 L 6.484375 19.9375 L 6.484375 -45.3125 L 18.84375 -45.3125 Z M 18.84375 -18.84375 "/></g></g></g><g fill="#000000" fill-opacity="1"><g transform="translate(123.164212, 276.184215)"><g><path d="M 25.25 -9.03125 C 28.4375 -9.03125 30.753906 -9.992188 32.203125 -11.921875 C 33.648438 -13.859375 34.425781 -17.25 34.53125 -22.09375 L 34.53125 -22.578125 C 34.53125 -27.441406 33.78125 -30.925781 32.28125 -33.03125 C 30.78125 -35.132812 28.367188 -36.1875 25.046875 -36.1875 C 19.234375 -36.1875 16.328125 -31.59375 16.328125 -22.40625 C 16.328125 -17.945312 17.050781 -14.601562 18.5 -12.375 C 19.945312 -10.144531 22.195312 -9.03125 25.25 -9.03125 Z M 21.484375 0.8125 C 15.941406 0.8125 11.597656 -1.238281 8.453125 -5.34375 C 5.304688 -9.457031 3.734375 -15.175781 3.734375 -22.5 C 3.734375 -30.007812 5.375 -35.816406 8.65625 -39.921875 C 11.9375 -44.023438 16.519531 -46.078125 22.40625 -46.078125 C 25.59375 -46.078125 28.21875 -45.507812 30.28125 -44.375 C 32.351562 -43.238281 34.066406 -41.535156 35.421875 -39.265625 L 36.03125 -39.265625 C 36.675781 -41.804688 37.582031 -43.820312 38.75 -45.3125 L 48.953125 -45.3125 C 48.085938 -42.6875 47.390625 -39.675781 46.859375 -36.28125 C 46.335938 -32.894531 46.078125 -29.796875 46.078125 -26.984375 L 46.078125 -14.34375 C 46.078125 -11.15625 47.210938 -9.5625 49.484375 -9.5625 C 50.347656 -9.5625 51.144531 -9.695312 51.875 -9.96875 L 51.875 -0.25 C 51.445312 0.0195312 50.613281 0.265625 49.375 0.484375 C 48.144531 0.703125 47.128906 0.8125 46.328125 0.8125 C 43.296875 0.8125 40.984375 0.289062 39.390625 -0.75 C 37.796875 -1.789062 36.539062 -3.523438 35.625 -5.953125 L 34.765625 -5.953125 C 31.796875 -1.441406 27.367188 0.8125 21.484375 0.8125 Z M 21.484375 0.8125 "/></g></g></g><g fill="#000000" fill-opacity="1"><g transform="translate(176.857884, 276.184215)"><g><path d="M 47.578125 -22.65625 C 47.578125 -15.28125 45.921875 -9.523438 42.609375 -5.390625 C 39.304688 -1.253906 34.707031 0.8125 28.8125 0.8125 C 24.65625 0.8125 20.859375 -0.226562 17.421875 -2.3125 L 16.703125 -2.3125 C 17.128906 2.332031 17.34375 5.953125 17.34375 8.546875 L 17.34375 19.9375 L 4.90625 19.9375 L 4.90625 -22.734375 C 4.90625 -30.160156 6.773438 -35.921875 10.515625 -40.015625 C 14.253906 -44.109375 19.570312 -46.15625 26.46875 -46.15625 C 30.65625 -46.15625 34.34375 -45.203125 37.53125 -43.296875 C 40.71875 -41.398438 43.1875 -38.664062 44.9375 -35.09375 C 46.695312 -31.53125 47.578125 -27.382812 47.578125 -22.65625 Z M 26.21875 -36.1875 C 23.164062 -36.1875 20.921875 -35.148438 19.484375 -33.078125 C 18.054688 -31.015625 17.34375 -27.753906 17.34375 -23.296875 L 17.34375 -12.609375 C 18.507812 -11.441406 19.875 -10.566406 21.4375 -9.984375 C 23.007812 -9.410156 24.601562 -9.125 26.21875 -9.125 C 29.300781 -9.125 31.507812 -10.179688 32.84375 -12.296875 C 34.1875 -14.421875 34.859375 -17.875 34.859375 -22.65625 C 34.859375 -27.40625 34.203125 -30.847656 32.890625 -32.984375 C 31.578125 -35.117188 29.351562 -36.1875 26.21875 -36.1875 Z M 26.21875 -36.1875 "/></g></g></g><g fill="#000000" fill-opacity="1"><g transform="translate(228.16068, 276.184215)"><g><path d="M 25.40625 -36.03125 L 25.40625 -14.1875 C 25.40625 -12.425781 25.898438 -11.125 26.890625 -10.28125 C 27.878906 -9.445312 29.179688 -9.03125 30.796875 -9.03125 C 32.960938 -9.03125 35.554688 -9.503906 38.578125 -10.453125 L 38.578125 -1.25 C 35.691406 0.125 32.15625 0.8125 27.96875 0.8125 C 22.832031 0.8125 19.0625 -0.4375 16.65625 -2.9375 C 14.25 -5.4375 13.046875 -9.1875 13.046875 -14.1875 L 13.046875 -36.03125 L 1.65625 -36.03125 L 1.65625 -41.171875 L 8.796875 -45.3125 L 41.5 -45.3125 L 41.5 -36.03125 Z M 25.40625 -36.03125 "/></g></g></g><g fill="#000000" fill-opacity="1"><g transform="translate(272.817606, 276.184215)"><g><path d="M 18.84375 -45.3125 L 18.84375 -14.1875 C 18.84375 -12.425781 19.332031 -11.125 20.3125 -10.28125 C 21.300781 -9.445312 22.609375 -9.03125 24.234375 -9.03125 C 26.421875 -9.03125 29.03125 -9.503906 32.0625 -10.453125 L 32.0625 -1.25 C 29.113281 0.125 25.5625 0.8125 21.40625 0.8125 C 16.269531 0.8125 12.5 -0.4375 10.09375 -2.9375 C 7.6875 -5.4375 6.484375 -9.1875 6.484375 -14.1875 L 6.484375 -45.3125 Z M 9.25 -51.546875 C 9.726562 -53.003906 10.328125 -55.21875 11.046875 -58.1875 C 11.765625 -61.164062 12.269531 -63.789062 12.5625 -66.0625 L 24.03125 -66.0625 L 24.03125 -65.09375 C 21.925781 -60.0625 19.398438 -55.128906 16.453125 -50.296875 L 9.25 -50.296875 Z M 9.25 -51.546875 "/></g></g></g><g fill="#000000" fill-opacity="1"><g transform="translate(306.614227, 276.184215)"><g><path d="M 25.25 -9.03125 C 28.4375 -9.03125 30.753906 -9.992188 32.203125 -11.921875 C 33.648438 -13.859375 34.425781 -17.25 34.53125 -22.09375 L 34.53125 -22.578125 C 34.53125 -27.441406 33.78125 -30.925781 32.28125 -33.03125 C 30.78125 -35.132812 28.367188 -36.1875 25.046875 -36.1875 C 19.234375 -36.1875 16.328125 -31.59375 16.328125 -22.40625 C 16.328125 -17.945312 17.050781 -14.601562 18.5 -12.375 C 19.945312 -10.144531 22.195312 -9.03125 25.25 -9.03125 Z M 21.484375 0.8125 C 15.941406 0.8125 11.597656 -1.238281 8.453125 -5.34375 C 5.304688 -9.457031 3.734375 -15.175781 3.734375 -22.5 C 3.734375 -30.007812 5.375 -35.816406 8.65625 -39.921875 C 11.9375 -44.023438 16.519531 -46.078125 22.40625 -46.078125 C 25.59375 -46.078125 28.21875 -45.507812 30.28125 -44.375 C 32.351562 -43.238281 34.066406 -41.535156 35.421875 -39.265625 L 36.03125 -39.265625 C 36.675781 -41.804688 37.582031 -43.820312 38.75 -45.3125 L 48.953125 -45.3125 C 48.085938 -42.6875 47.390625 -39.675781 46.859375 -36.28125 C 46.335938 -32.894531 46.078125 -29.796875 46.078125 -26.984375 L 46.078125 -14.34375 C 46.078125 -11.15625 47.210938 -9.5625 49.484375 -9.5625 C 50.347656 -9.5625 51.144531 -9.695312 51.875 -9.96875 L 51.875 -0.25 C 51.445312 0.0195312 50.613281 0.265625 49.375 0.484375 C 48.144531 0.703125 47.128906 0.8125 46.328125 0.8125 C 43.296875 0.8125 40.984375 0.289062 39.390625 -0.75 C 37.796875 -1.789062 36.539062 -3.523438 35.625 -5.953125 L 34.765625 -5.953125 C 31.796875 -1.441406 27.367188 0.8125 21.484375 0.8125 Z M 21.484375 0.8125 "/></g></g></g><g fill="#000000" fill-opacity="1"><g transform="translate(106.668384, 343.876805)"><g><path d="M 19.84375 0 L 14.5 0 L 16.84375 -11.03125 L 8.609375 -11.03125 L 6.265625 0 L 0.921875 0 L 6.328125 -25.5625 L 11.6875 -25.5625 L 9.5625 -15.546875 L 17.796875 -15.546875 L 19.921875 -25.5625 L 25.25 -25.5625 Z M 19.84375 0 "/></g></g></g><g fill="#000000" fill-opacity="1"><g transform="translate(131.734847, 343.876805)"><g><path d="M 7.09375 0.34375 C 5.382812 0.34375 4.035156 -0.273438 3.046875 -1.515625 C 2.066406 -2.753906 1.578125 -4.492188 1.578125 -6.734375 C 1.578125 -9.035156 1.992188 -11.234375 2.828125 -13.328125 C 3.671875 -15.421875 4.773438 -17.039062 6.140625 -18.1875 C 7.503906 -19.34375 9 -19.921875 10.625 -19.921875 C 11.757812 -19.921875 12.738281 -19.675781 13.5625 -19.1875 C 14.382812 -18.695312 15.019531 -17.984375 15.46875 -17.046875 L 15.609375 -17.046875 L 16.609375 -19.546875 L 20.671875 -19.546875 L 16.5 0 L 12.5 0 L 12.75 -2.53125 L 12.671875 -2.53125 C 11.109375 -0.613281 9.25 0.34375 7.09375 0.34375 Z M 9.15625 -3.90625 C 9.96875 -3.90625 10.742188 -4.296875 11.484375 -5.078125 C 12.234375 -5.859375 12.832031 -6.914062 13.28125 -8.25 C 13.738281 -9.582031 13.96875 -11.09375 13.96875 -12.78125 C 13.96875 -13.613281 13.742188 -14.300781 13.296875 -14.84375 C 12.847656 -15.382812 12.257812 -15.65625 11.53125 -15.65625 C 10.726562 -15.65625 9.96875 -15.234375 9.25 -14.390625 C 8.539062 -13.546875 7.972656 -12.4375 7.546875 -11.0625 C 7.117188 -9.6875 6.90625 -8.328125 6.90625 -6.984375 C 6.90625 -5.953125 7.097656 -5.179688 7.484375 -4.671875 C 7.878906 -4.160156 8.4375 -3.90625 9.15625 -3.90625 Z M 9.15625 -3.90625 "/></g></g></g><g fill="#000000" fill-opacity="1"><g transform="translate(153.008129, 343.876805)"><g><path d="M 14.765625 -19.921875 C 17.316406 -19.921875 18.84375 -18.59375 19.34375 -15.9375 L 19.4375 -15.9375 C 20.238281 -17.21875 21.175781 -18.203125 22.25 -18.890625 C 23.332031 -19.578125 24.484375 -19.921875 25.703125 -19.921875 C 27.285156 -19.921875 28.492188 -19.421875 29.328125 -18.421875 C 30.160156 -17.429688 30.578125 -16.050781 30.578125 -14.28125 C 30.578125 -13.394531 30.445312 -12.347656 30.1875 -11.140625 L 27.859375 0 L 22.59375 0 L 25 -11.421875 C 25.1875 -12.210938 25.28125 -12.90625 25.28125 -13.5 C 25.28125 -14.9375 24.710938 -15.65625 23.578125 -15.65625 C 22.503906 -15.65625 21.53125 -15 20.65625 -13.6875 C 19.789062 -12.382812 19.101562 -10.53125 18.59375 -8.125 L 16.90625 0 L 11.640625 0 L 14.046875 -11.421875 C 14.234375 -12.210938 14.328125 -12.90625 14.328125 -13.5 C 14.328125 -14.9375 13.753906 -15.65625 12.609375 -15.65625 C 11.535156 -15.65625 10.5625 -14.988281 9.6875 -13.65625 C 8.8125 -12.320312 8.125 -10.46875 7.625 -8.09375 L 5.90625 0 L 0.640625 0 L 4.796875 -19.546875 L 8.8125 -19.546875 L 8.453125 -15.9375 L 8.546875 -15.9375 C 10.253906 -18.59375 12.328125 -19.921875 14.765625 -19.921875 Z M 14.765625 -19.921875 "/></g></g></g><g fill="#000000" fill-opacity="1"><g transform="translate(185.398753, 343.876805)"><g><path d="M 7.09375 0.34375 C 5.382812 0.34375 4.035156 -0.273438 3.046875 -1.515625 C 2.066406 -2.753906 1.578125 -4.492188 1.578125 -6.734375 C 1.578125 -9.035156 1.992188 -11.234375 2.828125 -13.328125 C 3.671875 -15.421875 4.773438 -17.039062 6.140625 -18.1875 C 7.503906 -19.34375 9 -19.921875 10.625 -19.921875 C 11.757812 -19.921875 12.738281 -19.675781 13.5625 -19.1875 C 14.382812 -18.695312 15.019531 -17.984375 15.46875 -17.046875 L 15.609375 -17.046875 L 16.609375 -19.546875 L 20.671875 -19.546875 L 16.5 0 L 12.5 0 L 12.75 -2.53125 L 12.671875 -2.53125 C 11.109375 -0.613281 9.25 0.34375 7.09375 0.34375 Z M 9.15625 -3.90625 C 9.96875 -3.90625 10.742188 -4.296875 11.484375 -5.078125 C 12.234375 -5.859375 12.832031 -6.914062 13.28125 -8.25 C 13.738281 -9.582031 13.96875 -11.09375 13.96875 -12.78125 C 13.96875 -13.613281 13.742188 -14.300781 13.296875 -14.84375 C 12.847656 -15.382812 12.257812 -15.65625 11.53125 -15.65625 C 10.726562 -15.65625 9.96875 -15.234375 9.25 -14.390625 C 8.539062 -13.546875 7.972656 -12.4375 7.546875 -11.0625 C 7.117188 -9.6875 6.90625 -8.328125 6.90625 -6.984375 C 6.90625 -5.953125 7.097656 -5.179688 7.484375 -4.671875 C 7.878906 -4.160156 8.4375 -3.90625 9.15625 -3.90625 Z M 9.15625 -3.90625 "/></g></g></g><g fill="#000000" fill-opacity="1"><g transform="translate(206.672035, 343.876805)"><g><path d="M 14.71875 -19.921875 C 15.40625 -19.921875 15.96875 -19.851562 16.40625 -19.71875 L 15.25 -14.65625 C 14.726562 -14.84375 14.144531 -14.9375 13.5 -14.9375 C 12.144531 -14.9375 10.957031 -14.398438 9.9375 -13.328125 C 8.914062 -12.265625 8.191406 -10.738281 7.765625 -8.75 L 5.90625 0 L 0.640625 0 L 4.796875 -19.546875 L 8.8125 -19.546875 L 8.453125 -15.9375 L 8.546875 -15.9375 C 10.265625 -18.59375 12.320312 -19.921875 14.71875 -19.921875 Z M 14.71875 -19.921875 "/></g></g></g><g fill="#000000" fill-opacity="1"><g transform="translate(221.739881, 343.876805)"><g><path d="M 8.984375 -3.90625 C 9.742188 -3.90625 10.691406 -4.109375 11.828125 -4.515625 L 11.828125 -0.578125 C 10.523438 0.0351562 8.972656 0.34375 7.171875 0.34375 C 5.421875 0.34375 4.132812 -0.0195312 3.3125 -0.75 C 2.488281 -1.488281 2.078125 -2.625 2.078125 -4.15625 C 2.078125 -4.738281 2.148438 -5.394531 2.296875 -6.125 L 4.296875 -15.546875 L 1.640625 -15.546875 L 2.15625 -18.109375 L 5.578125 -19.578125 L 7.890625 -23.71875 L 11.28125 -23.71875 L 10.421875 -19.546875 L 15.375 -19.546875 L 14.5 -15.546875 L 9.5625 -15.546875 L 7.546875 -6.125 C 7.484375 -5.769531 7.453125 -5.457031 7.453125 -5.1875 C 7.453125 -4.332031 7.960938 -3.90625 8.984375 -3.90625 Z M 8.984375 -3.90625 "/></g></g></g><g fill="#000000" fill-opacity="1"><g transform="translate(236.423165, 343.876805)"><g><path d="M 5.625 -24.125 C 5.625 -25.144531 5.898438 -25.910156 6.453125 -26.421875 C 7.015625 -26.941406 7.800781 -27.203125 8.8125 -27.203125 C 9.664062 -27.203125 10.3125 -27.019531 10.75 -26.65625 C 11.195312 -26.300781 11.421875 -25.785156 11.421875 -25.109375 C 11.421875 -24.179688 11.160156 -23.425781 10.640625 -22.84375 C 10.128906 -22.269531 9.335938 -21.984375 8.265625 -21.984375 C 6.503906 -21.984375 5.625 -22.695312 5.625 -24.125 Z M 5.90625 0 L 0.640625 0 L 4.796875 -19.546875 L 10.0625 -19.546875 Z M 5.90625 0 "/></g></g></g><g fill="#000000" fill-opacity="1"><g transform="translate(247.051066, 343.876805)"><g><path d="M 7.09375 0.34375 C 5.382812 0.34375 4.035156 -0.273438 3.046875 -1.515625 C 2.066406 -2.753906 1.578125 -4.492188 1.578125 -6.734375 C 1.578125 -9.035156 1.992188 -11.234375 2.828125 -13.328125 C 3.671875 -15.421875 4.773438 -17.039062 6.140625 -18.1875 C 7.503906 -19.34375 9 -19.921875 10.625 -19.921875 C 11.757812 -19.921875 12.738281 -19.675781 13.5625 -19.1875 C 14.382812 -18.695312 15.019531 -17.984375 15.46875 -17.046875 L 15.609375 -17.046875 L 16.609375 -19.546875 L 20.671875 -19.546875 L 16.5 0 L 12.5 0 L 12.75 -2.53125 L 12.671875 -2.53125 C 11.109375 -0.613281 9.25 0.34375 7.09375 0.34375 Z M 9.15625 -3.90625 C 9.96875 -3.90625 10.742188 -4.296875 11.484375 -5.078125 C 12.234375 -5.859375 12.832031 -6.914062 13.28125 -8.25 C 13.738281 -9.582031 13.96875 -11.09375 13.96875 -12.78125 C 13.96875 -13.613281 13.742188 -14.300781 13.296875 -14.84375 C 12.847656 -15.382812 12.257812 -15.65625 11.53125 -15.65625 C 10.726562 -15.65625 9.96875 -15.234375 9.25 -14.390625 C 8.539062 -13.546875 7.972656 -12.4375 7.546875 -11.0625 C 7.117188 -9.6875 6.90625 -8.328125 6.90625 -6.984375 C 6.90625 -5.953125 7.097656 -5.179688 7.484375 -4.671875 C 7.878906 -4.160156 8.4375 -3.90625 9.15625 -3.90625 Z M 9.15625 -3.90625 "/></g></g></g></svg>