<svg xmlns="http://www.w3.org/2000/svg" xmlns:xlink="http://www.w3.org/1999/xlink" width="500" zoomAndPan="magnify" viewBox="0 0 375 374.999991" height="500" preserveAspectRatio="xMidYMid meet" version="1.0"><defs><g/></defs><g fill="#000000" fill-opacity="1"><g transform="translate(9.534782, 238.68861)"><g><path d="M 9.390625 0 L 9.390625 -79.359375 L 49.734375 -79.359375 C 58.847656 -79.359375 65.617188 -77.347656 70.046875 -73.328125 C 74.472656 -69.304688 76.6875 -62.875 76.6875 -54.03125 L 76.6875 0 Z M 21.453125 -11.125 L 64.625 -11.125 L 64.625 -51.609375 C 64.625 -57.867188 63.238281 -62.203125 60.46875 -64.609375 C 57.695312 -67.023438 53.851562 -68.234375 48.9375 -68.234375 L 21.453125 -68.234375 Z M 21.453125 -11.125 "/></g></g></g><g fill="#000000" fill-opacity="1"><g transform="translate(96.938937, 238.68861)"><g><path d="M 10.0625 -28.5625 L 10.0625 -79.359375 L 22.125 -79.359375 L 22.125 -40.625 L 16.09375 -28.5625 Z M 10.0625 -28.5625 "/></g></g></g><g fill="#000000" fill-opacity="1"><g transform="translate(161.28761, 238.68861)"><g><path d="M 11.125 19.4375 C 8.175781 19.4375 6.703125 17.738281 6.703125 14.34375 C 6.703125 11.039062 8.175781 9.390625 11.125 9.390625 C 12.46875 9.390625 13.5625 9.789062 14.40625 10.59375 C 15.257812 11.394531 15.6875 12.644531 15.6875 14.34375 C 15.6875 16.039062 15.257812 17.3125 14.40625 18.15625 C 13.5625 19.007812 12.46875 19.4375 11.125 19.4375 Z M 11.125 19.4375 "/></g></g></g><g fill="#000000" fill-opacity="1"><g transform="translate(128.44197, 238.68861)"><g><path d="M 64.625 0 L 64.625 -51.609375 C 64.625 -57.867188 63.238281 -62.203125 60.46875 -64.609375 C 57.695312 -67.023438 53.851562 -68.234375 48.9375 -68.234375 L 11.390625 -68.234375 L 11.390625 -79.359375 L 49.734375 -79.359375 C 58.847656 -79.359375 65.617188 -77.347656 70.046875 -73.328125 C 74.472656 -69.304688 76.6875 -62.875 76.6875 -54.03125 L 76.6875 0 Z M 11.390625 0 L 11.390625 -47.453125 L 23.46875 -47.453125 L 23.46875 0 Z M 11.390625 0 "/></g></g></g><g fill="#000000" fill-opacity="1"><g transform="translate(198.283762, 238.68861)"><g><path d="M 11.125 -88.484375 C 8.175781 -88.484375 6.703125 -90.179688 6.703125 -93.578125 C 6.703125 -96.878906 8.175781 -98.53125 11.125 -98.53125 C 12.46875 -98.53125 13.5625 -98.128906 14.40625 -97.328125 C 15.257812 -96.523438 15.6875 -95.273438 15.6875 -93.578125 C 15.6875 -91.785156 15.257812 -90.488281 14.40625 -89.6875 C 13.5625 -88.882812 12.46875 -88.484375 11.125 -88.484375 Z M 11.125 -88.484375 "/></g></g></g><g fill="#000000" fill-opacity="1"><g transform="translate(215.846116, 238.68861)"><g><path d="M 14.078125 -79.359375 L 63.6875 -79.359375 L 63.6875 -70.25 L 38.609375 0 L 25.875 0 L 51.078125 -68.234375 L 2.015625 -68.234375 L 2.015625 -101.890625 L 14.078125 -101.890625 Z M 14.078125 -79.359375 "/></g></g></g><g fill="#000000" fill-opacity="1"><g transform="translate(298.291119, 238.68861)"><g><path d="M 11.125 19.4375 C 8.175781 19.4375 6.703125 17.738281 6.703125 14.34375 C 6.703125 11.039062 8.175781 9.390625 11.125 9.390625 C 12.46875 9.390625 13.5625 9.789062 14.40625 10.59375 C 15.257812 11.394531 15.6875 12.644531 15.6875 14.34375 C 15.6875 16.039062 15.257812 17.3125 14.40625 18.15625 C 13.5625 19.007812 12.46875 19.4375 11.125 19.4375 Z M 27.484375 19.4375 C 24.535156 19.4375 23.0625 17.738281 23.0625 14.34375 C 23.0625 11.039062 24.535156 9.390625 27.484375 9.390625 C 28.828125 9.390625 29.921875 9.789062 30.765625 10.59375 C 31.617188 11.394531 32.046875 12.644531 32.046875 14.34375 C 32.046875 16.039062 31.617188 17.3125 30.765625 18.15625 C 29.921875 19.007812 28.828125 19.4375 27.484375 19.4375 Z M 40.484375 19.4375 C 37.535156 19.4375 36.0625 17.738281 36.0625 14.34375 C 36.0625 11.039062 37.535156 9.390625 40.484375 9.390625 C 41.828125 9.390625 42.921875 9.789062 43.765625 10.59375 C 44.617188 11.394531 45.046875 12.644531 45.046875 14.34375 C 45.046875 16.039062 44.617188 17.3125 43.765625 18.15625 C 42.921875 19.007812 41.828125 19.4375 40.484375 19.4375 Z M 40.625 33.78125 C 39.28125 33.78125 38.179688 33.378906 37.328125 32.578125 C 36.484375 31.773438 36.0625 30.476562 36.0625 28.6875 C 36.0625 26.988281 36.484375 25.738281 37.328125 24.9375 C 38.179688 24.132812 39.28125 23.734375 40.625 23.734375 C 41.957031 23.734375 43.046875 24.132812 43.890625 24.9375 C 44.742188 25.738281 45.171875 26.988281 45.171875 28.6875 C 45.171875 30.476562 44.742188 31.773438 43.890625 32.578125 C 43.046875 33.378906 41.957031 33.78125 40.625 33.78125 Z M 19.3125 33.78125 C 17.96875 33.78125 16.867188 33.378906 16.015625 32.578125 C 15.171875 31.773438 14.75 30.476562 14.75 28.6875 C 14.75 26.988281 15.171875 25.738281 16.015625 24.9375 C 16.867188 24.132812 17.96875 23.734375 19.3125 23.734375 C 20.644531 23.734375 21.734375 24.132812 22.578125 24.9375 C 23.429688 25.738281 23.859375 26.988281 23.859375 28.6875 C 23.859375 30.476562 23.429688 31.773438 22.578125 32.578125 C 21.734375 33.378906 20.644531 33.78125 19.3125 33.78125 Z M 19.3125 33.78125 "/></g></g></g><g fill="#000000" fill-opacity="1"><g transform="translate(284.214397, 238.68861)"><g><path d="M 7.5 0 L 7.5 -21.1875 C 7.5 -29.675781 8.929688 -36.644531 11.796875 -42.09375 C 14.660156 -47.550781 18.640625 -51.617188 23.734375 -54.296875 L 6.703125 -79.359375 L 20.90625 -79.359375 L 50.8125 -34.984375 C 57.332031 -38.921875 60.59375 -46.921875 60.59375 -58.984375 L 60.59375 -79.359375 L 72.65625 -79.359375 L 72.65625 -59.796875 C 72.65625 -51.304688 71.222656 -44.351562 68.359375 -38.9375 C 65.503906 -33.53125 61.53125 -29.441406 56.4375 -26.671875 L 74.53125 0 L 60.328125 0 L 29.359375 -45.984375 C 22.835938 -41.960938 19.578125 -33.960938 19.578125 -21.984375 L 19.578125 0 Z M 7.5 0 "/></g></g></g></svg>