<svg xmlns="http://www.w3.org/2000/svg" xmlns:xlink="http://www.w3.org/1999/xlink" width="500" zoomAndPan="magnify" viewBox="0 0 375 374.999991" height="500" preserveAspectRatio="xMidYMid meet" version="1.0"><defs><g/></defs><g fill="#000000" fill-opacity="1"><g transform="translate(35.903711, 245.182319)"><g/></g></g><g fill="#000000" fill-opacity="1"><g transform="translate(35.903711, 245.182319)"><g/></g></g><g fill="#000000" fill-opacity="1"><g transform="translate(35.903711, 245.182319)"><g><path d="M 10.578125 0 L 10.578125 -89.4375 L 56.046875 -89.4375 C 66.316406 -89.4375 73.945312 -87.171875 78.9375 -82.640625 C 83.925781 -78.109375 86.421875 -70.859375 86.421875 -60.890625 L 86.421875 0 Z M 24.171875 -12.546875 L 72.8125 -12.546875 L 72.8125 -58.171875 C 72.8125 -65.210938 71.25 -70.09375 68.125 -72.8125 C 65.007812 -75.539062 60.679688 -76.90625 55.140625 -76.90625 L 24.171875 -76.90625 Z M 24.171875 -12.546875 "/></g></g></g><g fill="#000000" fill-opacity="1"><g transform="translate(163.552512, 245.182319)"><g><path d="M 30.96875 21.90625 C 27.644531 21.90625 25.984375 19.992188 25.984375 16.171875 C 25.984375 12.441406 27.644531 10.578125 30.96875 10.578125 C 32.476562 10.578125 33.710938 11.03125 34.671875 11.9375 C 35.628906 12.84375 36.109375 14.253906 36.109375 16.171875 C 36.109375 18.078125 35.628906 19.507812 34.671875 20.46875 C 33.710938 21.425781 32.476562 21.90625 30.96875 21.90625 Z M 12.546875 21.90625 C 9.210938 21.90625 7.546875 19.992188 7.546875 16.171875 C 7.546875 12.441406 9.210938 10.578125 12.546875 10.578125 C 14.054688 10.578125 15.285156 11.03125 16.234375 11.9375 C 17.191406 12.84375 17.671875 14.253906 17.671875 16.171875 C 17.671875 18.078125 17.191406 19.507812 16.234375 20.46875 C 15.285156 21.425781 14.054688 21.90625 12.546875 21.90625 Z M 12.546875 21.90625 "/></g></g></g><g fill="#000000" fill-opacity="1"><g transform="translate(183.9471, 257.72121)"><g><path d="M 7.546875 -45.328125 C 7.546875 -49.046875 9.210938 -50.90625 12.546875 -50.90625 C 14.054688 -50.90625 15.285156 -50.453125 16.234375 -49.546875 C 17.191406 -48.640625 17.671875 -47.234375 17.671875 -45.328125 C 17.671875 -43.304688 17.191406 -41.84375 16.234375 -40.9375 C 15.285156 -40.03125 14.054688 -39.578125 12.546875 -39.578125 C 9.210938 -39.578125 7.546875 -41.492188 7.546875 -45.328125 Z M 7.546875 -45.328125 "/></g></g></g><g fill="#000000" fill-opacity="1"><g transform="translate(216.578439, 245.182319)"><g><path d="M 12.546875 -99.71875 C 9.210938 -99.71875 7.546875 -101.628906 7.546875 -105.453125 C 7.546875 -109.179688 9.210938 -111.046875 12.546875 -111.046875 C 14.054688 -111.046875 15.285156 -110.59375 16.234375 -109.6875 C 17.191406 -108.78125 17.671875 -107.367188 17.671875 -105.453125 C 17.671875 -103.441406 17.191406 -101.984375 16.234375 -101.078125 C 15.285156 -100.171875 14.054688 -99.71875 12.546875 -99.71875 Z M 12.546875 -99.71875 "/></g></g></g><g fill="#000000" fill-opacity="1"><g transform="translate(134.395815, 245.182319)"><g><path d="M 13.90625 0 L 6.046875 -89.4375 L 19.640625 -89.4375 L 23.71875 -43.515625 L 34.140625 -46.6875 C 38.273438 -47.988281 41.375 -50.175781 43.4375 -53.25 C 45.5 -56.320312 46.78125 -60.679688 47.28125 -66.328125 L 49.40625 -89.4375 L 63 -89.4375 L 61.1875 -69.046875 C 60.6875 -63.304688 59.851562 -58.242188 58.6875 -53.859375 C 57.53125 -49.472656 55.265625 -45.691406 51.890625 -42.515625 C 48.515625 -39.347656 43.253906 -36.707031 36.109375 -34.59375 L 24.78125 -31.265625 L 26.4375 -12.546875 L 45.46875 -12.546875 C 52.21875 -12.546875 58.410156 -13.953125 64.046875 -16.765625 C 69.691406 -19.585938 74.328125 -24.019531 77.953125 -30.0625 C 81.578125 -36.101562 83.84375 -43.957031 84.75 -53.625 L 88.078125 -89.4375 L 101.671875 -89.4375 L 98.359375 -53.625 C 98.054688 -49.800781 97.347656 -45.5 96.234375 -40.71875 C 95.128906 -35.9375 93.414062 -31.175781 91.09375 -26.4375 C 88.78125 -21.707031 85.660156 -17.328125 81.734375 -13.296875 C 77.804688 -9.265625 72.867188 -6.039062 66.921875 -3.625 C 60.984375 -1.207031 53.832031 0 45.46875 0 Z M 13.90625 0 "/></g></g></g><g fill="#000000" fill-opacity="1"><g transform="translate(269.295538, 245.182319)"><g><path d="M 7.546875 19.796875 L 7.546875 12.6875 L 34.453125 12.6875 L 34.453125 19.796875 Z M 7.546875 19.796875 "/></g></g></g><g fill="#000000" fill-opacity="1"><g transform="translate(240.592043, 245.182319)"><g><path d="M 72.8125 0 L 72.8125 -58.171875 C 72.8125 -65.210938 71.25 -70.09375 68.125 -72.8125 C 65.007812 -75.539062 60.679688 -76.90625 55.140625 -76.90625 L 12.84375 -76.90625 L 12.84375 -89.4375 L 56.046875 -89.4375 C 66.316406 -89.4375 73.945312 -87.171875 78.9375 -82.640625 C 83.925781 -78.109375 86.421875 -70.859375 86.421875 -60.890625 L 86.421875 0 Z M 12.84375 0 L 12.84375 -53.484375 L 26.4375 -53.484375 L 26.4375 0 Z M 12.84375 0 "/></g></g></g></svg>