<?xml version="1.0" encoding="UTF-8" standalone="no"?>
<!-- Created with Inkscape (http://www.inkscape.org/) -->
<svg
   xmlns:dc="http://purl.org/dc/elements/1.1/"
   xmlns:cc="http://web.resource.org/cc/"
   xmlns:rdf="http://www.w3.org/1999/02/22-rdf-syntax-ns#"
   xmlns:svg="http://www.w3.org/2000/svg"
   xmlns="http://www.w3.org/2000/svg"
   xmlns:sodipodi="http://sodipodi.sourceforge.net/DTD/sodipodi-0.dtd"
   xmlns:inkscape="http://www.inkscape.org/namespaces/inkscape"
   id="svg1923"
   sodipodi:version="0.32"
   inkscape:version="0.44.1"
   width="137"
   height="138"
   version="1.0"
   sodipodi:docbase="E:\Bryan\Temp"
   sodipodi:docname="Tetragrammaton scripts.svg">
  <metadata
     id="metadata1928">
    <rdf:RDF>
      <cc:Work
         rdf:about="">
        <dc:format>image/svg+xml</dc:format>
        <dc:type
           rdf:resource="http://purl.org/dc/dcmitype/StillImage" />
      </cc:Work>
    </rdf:RDF>
  </metadata>
  <defs
     id="defs1926" />
  <sodipodi:namedview
     inkscape:window-height="721"
     inkscape:window-width="1024"
     inkscape:pageshadow="2"
     inkscape:pageopacity="0.0"
     guidetolerance="10.0"
     gridtolerance="10.0"
     objecttolerance="10.0"
     borderopacity="1.0"
     bordercolor="#666666"
     pagecolor="#ffffff"
     id="base"
     inkscape:zoom="9.2821206"
     inkscape:cx="76.346008"
     inkscape:cy="30.445002"
     inkscape:window-x="-4"
     inkscape:window-y="-4"
     inkscape:current-layer="svg1923" />
  <path
     style="fill:black;fill-opacity:1;opacity:1"
     d="M 36.644143,83.270731 C 36.730255,81.38015 37.08912,78.756482 36.613416,78.467251 C 35.546738,77.818703 32.751599,78.941622 29.663923,80.026853 C 23.221652,82.291129 21.085831,82.463222 21.620939,80.857898 C 21.830324,80.229742 25.927104,78.493688 30,77 C 34.072896,75.506312 37.292307,75.141635 37.424631,73.36926 C 37.75999,68.8774 36.741515,69.999887 32.284105,71.916415 C 30.756807,72.573099 29.325834,72.725834 28.805493,72.205493 C 27.592904,70.992904 29.732069,69.377306 34,68.282356 C 36.77557,67.570276 37.565493,66.827188 37.816422,64.692211 C 38.195086,61.470433 37.619512,61.399035 32.236136,64 C 29.959398,65.1 27.399875,66 26.548306,66 C 24.026149,66 24.782728,64.041493 27.75,62.889252 C 29.2625,62.301924 32.678496,60.687568 35.341103,59.301794 C 41.453588,56.120505 42.735424,57.022286 41.135066,63.377886 C 40.51078,65.857151 40.20424,70.112311 40.118619,72.540487 C 39.762762,82.632426 40.287846,85.762762 37.864076,86 C 37.391094,86.046295 36.525524,85.874987 36.644143,83.270731 z M 87,82.559017 C 87,80.666476 87.205618,78.522703 86.732035,78.230013 C 86.258452,77.937322 82.63298,79.17886 79.545304,80.264091 C 73.103033,82.528367 70.967212,82.225984 71.50232,80.62066 C 71.711705,79.992504 75.927104,78.493688 80,77 C 84.072896,75.506312 87.533931,75.718571 87.785791,73.142628 C 88.07565,70.178045 87.237203,69.999887 82.284105,71.916415 C 80.733636,72.516346 79.325834,72.725834 78.805493,72.205493 C 77.592904,70.992904 79.885542,69.858867 84,68.282356 C 87.503193,66.94006 87.977512,67.673011 88.290898,64.929449 C 88.805959,60.420305 87.85675,61.517654 82.236136,64 C 79.923131,65.021539 77.399875,66 76.548306,66 C 74.026149,66 74.782728,64.041493 77.75,62.889252 C 79.2625,62.301924 82.678496,60.687568 85.341103,59.301794 C 91.453588,56.120505 92.735424,57.022286 91.135066,63.377886 C 90.51078,65.857151 90.509622,70.234292 90.355857,72.659106 C 89.881381,80.141426 90.169226,85.406905 87.982695,86.237238 C 87.53841,86.405955 87,84.451558 87,82.559017 z M 104.15288,83.561931 C 103.38045,82.411476 104.69003,80.042714 105.50202,77.366267 C 107.37615,71.18878 107.46944,70.547294 104.89938,70.683939 C 101.2749,70.876645 103.27303,68.336341 105.93657,68 C 108.83865,67.633537 108.56677,66.759706 109.81107,63.298039 C 110.9858,60.02993 108.65983,61.563341 105.2285,61.835989 C 99.712427,62.274285 99.238435,60.305046 104.75477,58.819649 C 110.24316,57.34178 114.52006,57.51135 112.38463,63.399134 C 111.34487,66.265941 111.21994,67.705431 114.67818,67.634077 C 120.23254,67.515403 117.13364,71.136736 113.6838,70.815369 C 109.50175,70.425794 109.53649,73.431021 108,77.222506 C 107.0703,79.516655 107.87488,80.204756 110.76276,79.474476 C 115.5102,78.273956 115.22972,81.121956 113.24238,82.350198 C 111.41475,83.479738 104.73783,84.43315 104.15288,83.561931 z M 60.430332,80.679044 C 60.151538,79.952518 59.867483,77.34578 60.211717,74.929044 C 61.328462,67.088799 60.240042,69.7863 57,70.194031 C 53.120407,70.682244 51,67.789121 51,64.30887 C 51,61.468106 53.564675,61.227312 54.289749,64 C 54.997435,66.706197 58.614896,68.726784 60.262357,64.287072 C 60.918692,62.518328 61.243163,60.183345 62.818457,60.762762 C 64.472208,61.371037 64.062071,69.308139 63.352017,76.75 C 62.746616,83.095026 61.500024,83.466617 60.430332,80.679044 z "
     id="path1932"
     sodipodi:nodetypes="cssssssssssssssssccssssssssssssssssccssssssssssssscsssssssc" />
  <path
     style="fill:none;fill-rule:evenodd;stroke:black;stroke-width:2;stroke-linecap:round;stroke-linejoin:round;stroke-opacity:1;stroke-miterlimit:4;stroke-dasharray:none"
     d="M 16.325294,17.044411 L 30.14614,15.653051 L 33.207133,39.584448"
     id="path2821" />
  <path
     style="fill:none;fill-rule:evenodd;stroke:black;stroke-width:2;stroke-linecap:round;stroke-linejoin:round;stroke-opacity:1;stroke-miterlimit:4;stroke-dasharray:none"
     d="M 19.200772,30.865257 L 31.815772,29.195624"
     id="path2823" />
  <path
     style="fill:none;fill-rule:evenodd;stroke:black;stroke-width:2;stroke-linecap:round;stroke-linejoin:round;stroke-opacity:1;stroke-miterlimit:4;stroke-dasharray:none"
     d="M 18.458713,24.836029 L 30.980956,23.073639"
     id="path2825" />
  <path
     style="fill:none;fill-rule:evenodd;stroke:black;stroke-width:2;stroke-linecap:round;stroke-linejoin:round;stroke-opacity:1;stroke-miterlimit:4;stroke-dasharray:none"
     d="M 43.781471,16.766139 L 53.428236,24.09397 L 53.520993,38.656874"
     id="path3712" />
  <path
     style="fill:none;fill-rule:evenodd;stroke:black;stroke-width:2;stroke-linecap:round;stroke-linejoin:round;stroke-opacity:1;stroke-miterlimit:4;stroke-dasharray:none"
     d="M 53.520993,24.464999 L 63.631545,16.673382"
     id="path3714" />
  <path
     style="fill:none;fill-rule:evenodd;stroke:black;stroke-width:2;stroke-linecap:round;stroke-linejoin:round;stroke-opacity:1;stroke-miterlimit:4;stroke-dasharray:none"
     d="M 72.257978,16.951654 L 86.078824,15.745808 L 89.510846,39.306176"
     id="path4601" />
  <path
     style="fill:none;fill-rule:evenodd;stroke:black;stroke-width:2;stroke-linecap:round;stroke-linejoin:round;stroke-opacity:1;stroke-miterlimit:4;stroke-dasharray:none"
     d="M 74.66967,31.050771 L 87.748456,29.473896"
     id="path4603" />
  <path
     style="fill:none;fill-rule:evenodd;stroke:black;stroke-width:2;stroke-linecap:round;stroke-linejoin:round;stroke-opacity:1;stroke-miterlimit:4;stroke-dasharray:none"
     d="M 74.391398,24.928786 L 87.099155,23.72294"
     id="path4605" />
  <path
     style="fill:none;fill-rule:evenodd;stroke:black;stroke-width:2;stroke-linecap:round;stroke-linejoin:round;stroke-opacity:1;stroke-miterlimit:4;stroke-dasharray:none"
     d="M 94.426986,23.444668 L 106.94923,16.209595 L 116.78151,36.894485 L 124.57313,31.885588"
     id="path4607" />
  <path
     style="fill:none;fill-rule:evenodd;stroke:black;stroke-width:2;stroke-linecap:round;stroke-linejoin:round;stroke-opacity:1;stroke-miterlimit:4;stroke-dasharray:none"
     d="M 100.82724,30.215955 L 110.47401,24.279485"
     id="path4609" />
  <path
     style="font-size:40px;font-style:normal;font-variant:normal;font-weight:normal;font-stretch:normal;text-align:start;line-height:125%;writing-mode:lr-tb;text-anchor:start;fill:black;fill-opacity:1;stroke:none;stroke-width:1px;stroke-linecap:butt;stroke-linejoin:miter;stroke-opacity:1;font-family:Arial Unicode MS"
     d="M 98.908926,117.66601 C 98.093653,117.51411 100.63267,111.84953 100.63267,111.84953 C 101.49614,107.37073 98.597441,107.01718 95.614385,106.42304 L 97.653126,103.19157 C 103.23894,105.76585 104.58818,105.95907 103.91392,111.32218 C 102.81421,113.93801 100.06151,117.88075 98.908926,117.66601 z M 91.277199,123.77688 L 87.995949,125.93156 L 87.995949,114.64249 C 87.995931,112.18157 88.549183,109.64001 87.501023,108.74156 C 86.452831,107.84314 83.54281,108.25579 80.925636,108.25578 C 78.881357,108.25579 74.634517,108.31733 71.848065,108.65586 L 75.267816,102.83876 C 74.992769,106.51244 78.902761,105.06337 81.611103,105.06335 C 85.295984,105.06337 88.366892,104.59119 89.961961,106.01695 C 91.556993,107.44275 91.277178,110.85345 91.277199,114.52531 L 91.277199,123.77688 z M 76.286652,123.77688 L 73.113136,125.93156 L 73.328604,115.3796 L 76.394386,113.76359 L 76.286652,123.77688 z M 67.615402,123.45367 L 64.226418,125.93156 L 64.226418,111.84953 C 63.522353,108.91227 61.461734,106.85993 58.346263,106.31531 L 60.708206,103.2993 C 65.501291,105.91549 66.384052,107.02046 67.507668,111.32218 L 67.615402,123.45367 z M 54.870949,123.45368 L 51.589699,125.93156 L 51.589699,114.64249 C 51.589681,112.18157 52.035199,109.85548 50.987039,108.95703 C 49.938847,108.05861 47.13656,108.25579 44.519386,108.25578 C 42.475107,108.25579 38.551469,108.10186 35.765017,108.44039 L 39.077034,102.51555 C 39.232923,106.08149 42.388777,104.95564 45.097119,104.95562 C 48.782,104.95564 51.852908,104.80666 53.447977,106.23242 C 55.043009,107.65822 54.870928,110.85345 54.870949,114.52531 L 54.870949,123.45368 z M 40.203604,123.77688 L 36.706886,125.93156 L 36.81462,116.026 L 39.988136,113.76359 L 40.203604,123.77688 z "
     id="text5496"
     sodipodi:nodetypes="cccccscccssccsscccccccccccccccccssccssccccccc" />
</svg>
