<svg xmlns="http://www.w3.org/2000/svg" xmlns:xlink="http://www.w3.org/1999/xlink" width="500" zoomAndPan="magnify" viewBox="0 0 375 374.999991" height="500" preserveAspectRatio="xMidYMid meet" version="1.0"><defs><g/><clipPath id="0fb5a5c96d"><path d="M 23 20 L 352.667969 20 L 352.667969 313.933594 L 23 313.933594 Z M 23 20 " clip-rule="nonzero"/></clipPath></defs><path fill="#000000" d="M 110.632812 246.894531 L 100.34375 246.894531 L 100.34375 236.609375 C 100.34375 233.78125 98.027344 231.46875 95.199219 231.46875 C 92.371094 231.46875 90.054688 233.78125 90.054688 236.609375 L 90.054688 246.894531 L 79.765625 246.894531 C 76.9375 246.894531 74.621094 249.210938 74.621094 252.039062 C 74.621094 254.867188 76.9375 257.179688 79.765625 257.179688 L 90.054688 257.179688 L 90.054688 282.890625 C 90.054688 285.71875 92.371094 288.03125 95.199219 288.03125 C 98.027344 288.03125 100.34375 285.71875 100.34375 282.890625 L 100.34375 257.179688 L 110.632812 257.179688 C 113.460938 257.179688 115.777344 254.867188 115.777344 252.039062 C 115.777344 249.210938 113.460938 246.894531 110.632812 246.894531 Z M 110.632812 246.894531 " fill-opacity="1" fill-rule="nonzero"/><g clip-path="url(#0fb5a5c96d)"><path fill="#000000" d="M 352.410156 296.261719 C 342.636719 238.925781 302.511719 192.644531 250.8125 171.5625 C 258.527344 116.027344 237.179688 58.691406 192.167969 21.925781 C 190.109375 20.125 185.738281 20.125 183.679688 21.925781 C 138.925781 58.691406 117.578125 115.769531 125.035156 171.046875 C 72.566406 192.386719 32.953125 239.4375 23.179688 296.261719 C 22.667969 299.089844 24.210938 302.429688 26.78125 303.457031 C 45.558594 310.402344 64.847656 313.742188 83.882812 313.742188 C 121.433594 313.742188 157.957031 301.144531 187.539062 278.519531 C 217.117188 301.144531 253.640625 313.742188 291.191406 313.742188 C 310.226562 313.742188 329.773438 310.402344 348.292969 303.457031 C 351.378906 302.429688 352.667969 299.089844 352.410156 296.261719 Z M 187.796875 31.695312 C 227.664062 65.632812 246.953125 117.3125 240.78125 167.707031 C 217.375 159.734375 192.167969 156.90625 166.703125 159.992188 C 155.644531 161.277344 145.097656 163.847656 134.808594 167.191406 C 128.894531 117.3125 148.183594 65.632812 187.796875 31.695312 Z M 187.796875 265.40625 C 170.046875 250.238281 155.386719 231.210938 145.871094 208.84375 C 141.496094 198.558594 138.410156 188.273438 136.351562 177.734375 C 146.382812 174.132812 156.929688 171.820312 167.734375 170.277344 C 192.425781 167.191406 216.601562 170.277344 238.980469 177.988281 C 236.921875 188.53125 233.835938 198.816406 229.464844 208.84375 C 220.203125 231.210938 205.542969 250.496094 187.796875 265.40625 Z M 33.984375 294.972656 C 43.757812 243.808594 79.511719 201.386719 126.578125 181.332031 C 128.636719 191.875 131.980469 202.671875 136.351562 212.699219 C 146.382812 235.839844 161.300781 255.894531 179.5625 271.578125 C 138.925781 302.171875 84.140625 312.457031 33.984375 294.972656 Z M 196.027344 271.835938 C 214.289062 255.894531 229.207031 236.097656 239.238281 212.957031 C 243.609375 202.929688 246.695312 192.386719 249.011719 181.847656 C 295.566406 201.644531 331.832031 243.550781 341.605469 294.972656 C 291.449219 312.457031 236.664062 301.917969 196.027344 271.835938 Z M 196.027344 271.835938 " fill-opacity="1" fill-rule="nonzero"/></g><path fill="#000000" d="M 207.085938 141.480469 C 209.144531 141.480469 211.199219 140.195312 211.972656 138.136719 L 223.546875 107.542969 C 224.320312 105.226562 223.546875 102.65625 221.488281 101.371094 C 219.433594 100.085938 216.601562 100.34375 215.058594 102.144531 C 211.972656 105.484375 208.113281 108.828125 204.257812 108.828125 C 200.398438 108.828125 198.082031 103.683594 196.796875 100.601562 C 195.253906 96.742188 193.96875 92.628906 193.195312 88.773438 C 192.167969 83.375 183.679688 83.375 182.394531 88.773438 C 181.621094 92.371094 180.335938 96.488281 178.792969 100.601562 C 177.765625 103.683594 175.191406 108.570312 171.078125 108.828125 C 167.21875 108.828125 163.617188 105.484375 160.273438 102.144531 C 158.472656 100.34375 155.902344 100.085938 153.84375 101.371094 C 151.785156 102.65625 151.015625 105.226562 151.785156 107.542969 L 163.359375 138.136719 C 164.132812 140.195312 165.933594 141.480469 168.246094 141.480469 Z M 171.847656 119.367188 C 176.734375 119.113281 183.164062 116.796875 187.796875 106.511719 C 192.425781 116.796875 198.855469 119.367188 203.742188 119.367188 C 203.742188 119.367188 206.828125 119.367188 208.113281 118.855469 L 203.484375 131.195312 L 172.105469 131.195312 L 167.476562 118.855469 C 168.761719 119.367188 171.847656 119.367188 171.847656 119.367188 Z M 171.847656 119.367188 " fill-opacity="1" fill-rule="nonzero"/><path fill="#000000" d="M 310.484375 245.609375 C 308.425781 242.523438 305.339844 240.980469 302.769531 240.210938 C 299.679688 234.8125 293.507812 231.726562 287.59375 231.726562 C 278.332031 231.726562 274.21875 238.925781 273.445312 243.039062 C 273.1875 244.324219 272.675781 245.351562 272.160156 246.636719 C 272.160156 246.636719 258.011719 229.667969 258.011719 229.667969 C 256.210938 227.613281 252.613281 226.328125 249.78125 226.328125 C 246.953125 226.328125 244.125 227.613281 242.582031 230.183594 C 238.722656 236.097656 240.007812 243.808594 241.039062 247.667969 C 239.75 250.238281 239.496094 252.808594 240.007812 255.378906 C 241.292969 259.75 245.152344 263.351562 249.269531 265.921875 C 248.496094 265.921875 244.894531 265.921875 244.636719 265.921875 C 242.582031 265.664062 240.78125 266.691406 239.75 268.492188 C 238.722656 270.292969 238.980469 272.347656 240.007812 273.890625 C 249.523438 287.261719 262.644531 290.089844 271.902344 290.089844 C 277.820312 290.089844 282.191406 288.804688 282.449219 288.804688 C 299.425781 284.175781 301.738281 265.921875 300.453125 254.867188 C 301.996094 254.09375 304.566406 253.324219 306.882812 252.808594 C 308.425781 252.550781 309.96875 251.265625 310.484375 249.722656 C 311.511719 248.695312 311.253906 246.894531 310.484375 245.609375 Z M 290.421875 253.835938 C 290.421875 254.09375 290.421875 254.351562 290.421875 254.867188 C 290.679688 255.636719 294.023438 275.433594 279.875 279.546875 C 279.875 279.546875 266.757812 283.148438 255.957031 275.691406 C 260.070312 274.664062 263.929688 272.863281 265.988281 269.261719 C 266.757812 267.976562 267.015625 266.433594 266.5 264.894531 C 265.988281 263.351562 264.957031 262.320312 263.414062 261.808594 C 257.5 259.75 250.554688 255.636719 250.039062 253.066406 C 250.039062 252.808594 250.039062 252.550781 250.554688 252.039062 C 251.839844 250.75 252.097656 248.695312 251.582031 246.894531 C 250.8125 244.839844 249.78125 240.210938 250.8125 237.125 L 268.558594 258.207031 C 269.585938 259.234375 270.875 260.007812 272.417969 260.007812 C 273.960938 260.007812 275.246094 259.492188 276.273438 258.464844 C 276.789062 257.949219 282.191406 252.292969 283.476562 245.351562 C 283.734375 244.324219 284.761719 242.265625 287.59375 242.265625 C 288.363281 242.265625 289.394531 242.523438 290.421875 242.78125 C 291.707031 243.296875 293.507812 244.582031 293.765625 245.09375 C 293.765625 245.867188 294.023438 246.636719 294.535156 247.410156 C 291.707031 249.210938 290.421875 251.265625 290.421875 253.835938 Z M 290.421875 253.835938 " fill-opacity="1" fill-rule="nonzero"/><g fill="#000000" fill-opacity="1"><g transform="translate(114.469641, 349.580876)"><g><path d="M 11.765625 0 L 6.890625 0 L 6.890625 -18.9375 L 0.640625 -18.9375 L 0.640625 -23 L 18.015625 -23 L 18.015625 -18.9375 L 11.765625 -18.9375 Z M 11.765625 0 "/></g></g></g><g fill="#000000" fill-opacity="1"><g transform="translate(133.123974, 349.580876)"><g><path d="M 7.765625 -12.796875 L 9.34375 -12.796875 C 10.882812 -12.796875 12.019531 -13.050781 12.75 -13.5625 C 13.488281 -14.070312 13.859375 -14.878906 13.859375 -15.984375 C 13.859375 -17.078125 13.484375 -17.851562 12.734375 -18.3125 C 11.984375 -18.769531 10.820312 -19 9.25 -19 L 7.765625 -19 Z M 7.765625 -8.828125 L 7.765625 0 L 2.890625 0 L 2.890625 -23 L 9.59375 -23 C 12.71875 -23 15.03125 -22.429688 16.53125 -21.296875 C 18.03125 -20.160156 18.78125 -18.429688 18.78125 -16.109375 C 18.78125 -14.753906 18.40625 -13.550781 17.65625 -12.5 C 16.914062 -11.445312 15.863281 -10.617188 14.5 -10.015625 C 17.96875 -4.847656 20.222656 -1.507812 21.265625 0 L 15.859375 0 L 10.375 -8.828125 Z M 7.765625 -8.828125 "/></g></g></g><g fill="#000000" fill-opacity="1"><g transform="translate(154.389284, 349.580876)"><g><path d="M 2.890625 0 L 2.890625 -23 L 7.765625 -23 L 7.765625 0 Z M 2.890625 0 "/></g></g></g><g fill="#000000" fill-opacity="1"><g transform="translate(165.053397, 349.580876)"><g><path d="M 23.296875 0 L 17.09375 0 L 7.09375 -17.40625 L 6.953125 -17.40625 C 7.148438 -14.332031 7.25 -12.140625 7.25 -10.828125 L 7.25 0 L 2.890625 0 L 2.890625 -23 L 9.046875 -23 L 19.03125 -5.78125 L 19.140625 -5.78125 C 18.984375 -8.757812 18.90625 -10.867188 18.90625 -12.109375 L 18.90625 -23 L 23.296875 -23 Z M 23.296875 0 "/></g></g></g><g fill="#000000" fill-opacity="1"><g transform="translate(191.241819, 349.580876)"><g><path d="M 2.890625 0 L 2.890625 -23 L 7.765625 -23 L 7.765625 0 Z M 2.890625 0 "/></g></g></g><g fill="#000000" fill-opacity="1"><g transform="translate(201.905932, 349.580876)"><g><path d="M 11.765625 0 L 6.890625 0 L 6.890625 -18.9375 L 0.640625 -18.9375 L 0.640625 -23 L 18.015625 -23 L 18.015625 -18.9375 L 11.765625 -18.9375 Z M 11.765625 0 "/></g></g></g><g fill="#000000" fill-opacity="1"><g transform="translate(220.560265, 349.580876)"><g><path d="M 16.96875 0 L 15.3125 -5.46875 L 6.921875 -5.46875 L 5.25 0 L 0 0 L 8.125 -23.09375 L 14.078125 -23.09375 L 22.234375 0 Z M 14.140625 -9.5625 C 12.597656 -14.519531 11.726562 -17.320312 11.53125 -17.96875 C 11.34375 -18.625 11.207031 -19.140625 11.125 -19.515625 C 10.78125 -18.179688 9.789062 -14.863281 8.15625 -9.5625 Z M 14.140625 -9.5625 "/></g></g></g><g fill="#000000" fill-opacity="1"><g transform="translate(242.785035, 349.580876)"><g><path d="M 16.46875 -6.390625 C 16.46875 -4.304688 15.71875 -2.664062 14.21875 -1.46875 C 12.726562 -0.28125 10.648438 0.3125 7.984375 0.3125 C 5.535156 0.3125 3.367188 -0.144531 1.484375 -1.0625 L 1.484375 -5.59375 C 3.035156 -4.90625 4.347656 -4.421875 5.421875 -4.140625 C 6.492188 -3.859375 7.476562 -3.71875 8.375 -3.71875 C 9.4375 -3.71875 10.253906 -3.921875 10.828125 -4.328125 C 11.398438 -4.734375 11.6875 -5.34375 11.6875 -6.15625 C 11.6875 -6.601562 11.5625 -7 11.3125 -7.34375 C 11.0625 -7.695312 10.691406 -8.035156 10.203125 -8.359375 C 9.710938 -8.691406 8.71875 -9.210938 7.21875 -9.921875 C 5.8125 -10.585938 4.753906 -11.222656 4.046875 -11.828125 C 3.347656 -12.441406 2.789062 -13.148438 2.375 -13.953125 C 1.957031 -14.765625 1.75 -15.707031 1.75 -16.78125 C 1.75 -18.820312 2.4375 -20.421875 3.8125 -21.578125 C 5.195312 -22.742188 7.101562 -23.328125 9.53125 -23.328125 C 10.726562 -23.328125 11.867188 -23.1875 12.953125 -22.90625 C 14.035156 -22.625 15.171875 -22.222656 16.359375 -21.703125 L 14.78125 -17.921875 C 13.5625 -18.421875 12.550781 -18.769531 11.75 -18.96875 C 10.945312 -19.164062 10.15625 -19.265625 9.375 -19.265625 C 8.445312 -19.265625 7.738281 -19.050781 7.25 -18.625 C 6.757812 -18.195312 6.515625 -17.632812 6.515625 -16.9375 C 6.515625 -16.507812 6.613281 -16.132812 6.8125 -15.8125 C 7.007812 -15.5 7.328125 -15.191406 7.765625 -14.890625 C 8.203125 -14.585938 9.234375 -14.050781 10.859375 -13.28125 C 13.003906 -12.25 14.472656 -11.21875 15.265625 -10.1875 C 16.066406 -9.15625 16.46875 -7.890625 16.46875 -6.390625 Z M 16.46875 -6.390625 "/></g></g></g></svg>