<svg xmlns="http://www.w3.org/2000/svg" xmlns:xlink="http://www.w3.org/1999/xlink" width="500" zoomAndPan="magnify" viewBox="0 0 375 374.999991" height="500" preserveAspectRatio="xMidYMid meet" version="1.0"><defs><clipPath id="5f4cb05733"><path d="M 110.09375 9.371094 L 264.59375 9.371094 L 264.59375 134 L 110.09375 134 Z M 110.09375 9.371094 " clip-rule="nonzero"/></clipPath><clipPath id="4c6d5befeb"><path d="M 110.09375 9.371094 L 264.59375 9.371094 L 264.59375 116 L 110.09375 116 Z M 110.09375 9.371094 " clip-rule="nonzero"/></clipPath><clipPath id="b1d1042588"><path d="M 120 9.371094 L 256 9.371094 L 256 101 L 120 101 Z M 120 9.371094 " clip-rule="nonzero"/></clipPath><clipPath id="752f4873ef"><path d="M 125 182 L 250 182 L 250 365.621094 L 125 365.621094 Z M 125 182 " clip-rule="nonzero"/></clipPath><clipPath id="478eab7ee7"><path d="M 110.09375 24 L 264.59375 24 L 264.59375 301 L 110.09375 301 Z M 110.09375 24 " clip-rule="nonzero"/></clipPath><clipPath id="275988903b"><path d="M 110.09375 44 L 264.59375 44 L 264.59375 320 L 110.09375 320 Z M 110.09375 44 " clip-rule="nonzero"/></clipPath></defs><path fill="#000000" d="M 122.328125 26.160156 C 122.328125 24.359375 117.742188 20.683594 117.742188 19.40625 C 119.121094 19.40625 131.65625 19.40625 133.476562 19.40625 C 133.476562 20.457031 129.097656 24.359375 129.097656 26.160156 C 128.414062 26.160156 122.328125 26.160156 122.328125 26.160156 Z M 122.328125 26.160156 " fill-opacity="1" fill-rule="nonzero"/><path fill="#000000" d="M 122.328125 32.582031 C 122.328125 30.78125 117.742188 27.105469 117.742188 25.828125 C 119.121094 25.828125 131.65625 25.828125 133.476562 25.828125 C 133.476562 26.882812 129.097656 30.78125 129.097656 32.582031 C 128.414062 32.582031 122.328125 32.582031 122.328125 32.582031 Z M 122.328125 32.582031 " fill-opacity="1" fill-rule="nonzero"/><path fill="#000000" d="M 141.097656 26.160156 C 141.097656 24.359375 136.515625 20.683594 136.515625 19.40625 C 137.894531 19.40625 150.429688 19.40625 152.25 19.40625 C 152.25 20.457031 147.871094 24.359375 147.871094 26.160156 C 147.1875 26.160156 141.097656 26.160156 141.097656 26.160156 Z M 141.097656 26.160156 " fill-opacity="1" fill-rule="nonzero"/><path fill="#000000" d="M 141.097656 32.582031 C 141.097656 30.78125 136.515625 27.105469 136.515625 25.828125 C 137.894531 25.828125 150.429688 25.828125 152.25 25.828125 C 152.25 26.882812 147.871094 30.78125 147.871094 32.582031 C 147.1875 32.582031 141.097656 32.582031 141.097656 32.582031 Z M 141.097656 32.582031 " fill-opacity="1" fill-rule="nonzero"/><path fill="#000000" d="M 160.492188 26.160156 C 160.492188 24.359375 155.90625 20.683594 155.90625 19.40625 C 157.285156 19.40625 169.820312 19.40625 171.640625 19.40625 C 171.640625 20.457031 167.261719 24.359375 167.261719 26.160156 C 166.578125 26.160156 160.492188 26.160156 160.492188 26.160156 Z M 160.492188 26.160156 " fill-opacity="1" fill-rule="nonzero"/><path fill="#000000" d="M 160.492188 32.582031 C 160.492188 30.78125 155.90625 27.105469 155.90625 25.828125 C 157.285156 25.828125 169.820312 25.828125 171.640625 25.828125 C 171.640625 26.882812 167.261719 30.78125 167.261719 32.582031 C 166.578125 32.582031 160.492188 32.582031 160.492188 32.582031 Z M 160.492188 32.582031 " fill-opacity="1" fill-rule="nonzero"/><path fill="#000000" d="M 208.554688 26.160156 C 208.554688 24.359375 203.972656 20.683594 203.972656 19.40625 C 205.347656 19.40625 217.886719 19.40625 219.703125 19.40625 C 219.703125 20.457031 215.328125 24.359375 215.328125 26.160156 C 214.644531 26.160156 208.554688 26.160156 208.554688 26.160156 Z M 208.554688 26.160156 " fill-opacity="1" fill-rule="nonzero"/><path fill="#000000" d="M 208.554688 32.582031 C 208.554688 30.78125 203.972656 27.105469 203.972656 25.828125 C 205.347656 25.828125 217.886719 25.828125 219.703125 25.828125 C 219.703125 26.882812 215.328125 30.78125 215.328125 32.582031 C 214.644531 32.582031 208.554688 32.582031 208.554688 32.582031 Z M 208.554688 32.582031 " fill-opacity="1" fill-rule="nonzero"/><path fill="#000000" d="M 184.832031 26.160156 C 184.832031 24.359375 180.25 20.683594 180.25 19.40625 C 181.625 19.40625 194.164062 19.40625 195.980469 19.40625 C 195.980469 20.457031 191.605469 24.359375 191.605469 26.160156 C 190.921875 26.160156 184.832031 26.160156 184.832031 26.160156 Z M 184.832031 26.160156 " fill-opacity="1" fill-rule="nonzero"/><path fill="#000000" d="M 184.832031 32.582031 C 184.832031 30.78125 180.25 27.105469 180.25 25.828125 C 181.625 25.828125 194.164062 25.828125 195.980469 25.828125 C 195.980469 26.882812 191.605469 30.78125 191.605469 32.582031 C 190.921875 32.582031 184.832031 32.582031 184.832031 32.582031 Z M 184.832031 32.582031 " fill-opacity="1" fill-rule="nonzero"/><path fill="#000000" d="M 227.945312 26.160156 C 227.945312 24.359375 223.363281 20.683594 223.363281 19.40625 C 224.738281 19.40625 237.277344 19.40625 239.09375 19.40625 C 239.09375 20.457031 234.71875 24.359375 234.71875 26.160156 C 234.035156 26.160156 227.945312 26.160156 227.945312 26.160156 Z M 227.945312 26.160156 " fill-opacity="1" fill-rule="nonzero"/><path fill="#000000" d="M 227.945312 32.582031 C 227.945312 30.78125 223.363281 27.105469 223.363281 25.828125 C 224.738281 25.828125 237.277344 25.828125 239.09375 25.828125 C 239.09375 26.882812 234.71875 30.78125 234.71875 32.582031 C 234.035156 32.582031 227.945312 32.582031 227.945312 32.582031 Z M 227.945312 32.582031 " fill-opacity="1" fill-rule="nonzero"/><path fill="#000000" d="M 246.71875 26.160156 C 246.71875 24.359375 242.132812 20.683594 242.132812 19.40625 C 243.511719 19.40625 256.050781 19.40625 257.867188 19.40625 C 257.867188 20.457031 253.488281 24.359375 253.488281 26.160156 C 252.804688 26.160156 246.71875 26.160156 246.71875 26.160156 Z M 246.71875 26.160156 " fill-opacity="1" fill-rule="nonzero"/><path fill="#000000" d="M 246.71875 32.582031 C 246.71875 30.78125 242.132812 27.105469 242.132812 25.828125 C 243.511719 25.828125 256.050781 25.828125 257.867188 25.828125 C 257.867188 26.882812 253.488281 30.78125 253.488281 32.582031 C 252.804688 32.582031 246.71875 32.582031 246.71875 32.582031 Z M 246.71875 32.582031 " fill-opacity="1" fill-rule="nonzero"/><g clip-path="url(#5f4cb05733)"><path stroke-linecap="butt" transform="matrix(0.7725, 0, 0, 0.774023, 110.095596, 9.472322)" fill="none" stroke-linejoin="miter" d="M 20.08762 29.225766 C 20.08762 73.767779 56.197048 109.871741 100.735886 109.871741 C 145.274724 109.871741 181.384152 73.767779 181.384152 29.225766 " stroke="#000000" stroke-width="9" stroke-opacity="1" stroke-miterlimit="4"/></g><g clip-path="url(#4c6d5befeb)"><path stroke-linecap="butt" transform="matrix(0.7725, 0, 0, 0.774023, 110.095596, 9.472322)" fill="none" stroke-linejoin="miter" d="M 44.389806 29.225766 C 44.389806 60.348653 69.617356 85.571968 100.735886 85.571968 C 131.859472 85.571968 157.081966 60.348653 157.081966 29.225766 " stroke="#000000" stroke-width="9" stroke-opacity="1" stroke-miterlimit="4"/></g><g clip-path="url(#b1d1042588)"><path stroke-linecap="butt" transform="matrix(0.7725, 0, 0, 0.774023, 110.095596, 9.472322)" fill="none" stroke-linejoin="miter" d="M 69.490941 29.225766 C 69.490941 46.485418 83.477592 60.469773 100.735886 60.469773 C 117.99418 60.469773 131.980831 46.485418 131.980831 29.225766 " stroke="#000000" stroke-width="10" stroke-opacity="1" stroke-miterlimit="4"/></g><path stroke-linecap="butt" transform="matrix(0.7725, 0, 0, 0.774023, 110.095596, 9.472322)" fill="none" stroke-linejoin="miter" d="M 100.735886 29.225766 L 100.735886 154.893189 " stroke="#000000" stroke-width="9" stroke-opacity="1" stroke-miterlimit="4"/><g clip-path="url(#752f4873ef)"><path stroke-linecap="round" transform="matrix(0.7725, 0, 0, 0.774023, 110.095596, 9.472322)" fill="none" stroke-linejoin="miter" d="M 101.15053 273.984785 C 145.537669 339.838935 133.604011 409.57903 100.194826 445.879812 C 71.554048 409.57903 52.222533 342.432929 100.907812 273.984785 " stroke="#000000" stroke-width="9" stroke-opacity="1" stroke-miterlimit="4"/></g><path fill="#000000" d="M 186.019531 324.886719 C 186.019531 325.378906 185.925781 325.851562 185.738281 326.304688 C 185.550781 326.757812 185.28125 327.15625 184.9375 327.503906 C 184.589844 327.851562 184.191406 328.117188 183.738281 328.304688 C 183.285156 328.492188 182.8125 328.585938 182.324219 328.585938 C 181.835938 328.585938 181.363281 328.492188 180.910156 328.304688 C 180.457031 328.117188 180.058594 327.851562 179.710938 327.503906 C 179.367188 327.15625 179.097656 326.757812 178.914062 326.304688 C 178.726562 325.851562 178.632812 325.378906 178.632812 324.886719 C 178.632812 324.394531 178.726562 323.925781 178.914062 323.46875 C 179.097656 323.015625 179.367188 322.617188 179.710938 322.269531 C 180.058594 321.921875 180.457031 321.65625 180.910156 321.46875 C 181.363281 321.28125 181.835938 321.1875 182.324219 321.1875 C 182.8125 321.1875 183.285156 321.28125 183.738281 321.46875 C 184.191406 321.65625 184.589844 321.921875 184.9375 322.269531 C 185.28125 322.617188 185.550781 323.015625 185.738281 323.46875 C 185.925781 323.925781 186.019531 324.394531 186.019531 324.886719 Z M 186.019531 324.886719 " fill-opacity="1" fill-rule="nonzero"/><g clip-path="url(#478eab7ee7)"><path stroke-linecap="butt" transform="matrix(0.7725, 0, 0, 0.774023, 110.095596, 9.472322)" fill="none" stroke-linejoin="miter" d="M 100.872415 146.722611 L 129.902555 197.61335 L 158.937751 248.499042 L 42.802023 248.499042 L 71.837219 197.61335 Z M 100.872415 146.722611 " stroke="#000000" stroke-width="9" stroke-opacity="1" stroke-miterlimit="10"/></g><g clip-path="url(#275988903b)"><path stroke-linecap="butt" transform="matrix(0.7725, 0, 0, 0.774023, 110.095596, 9.472322)" fill="none" stroke-linejoin="miter" d="M 100.872415 273.025915 L 129.902555 222.766012 L 158.937751 172.501061 L 42.802023 172.501061 L 71.837219 222.766012 Z M 100.872415 273.025915 " stroke="#000000" stroke-width="9" stroke-opacity="1" stroke-miterlimit="10"/></g></svg>