<svg xmlns="http://www.w3.org/2000/svg" xmlns:xlink="http://www.w3.org/1999/xlink" width="500" zoomAndPan="magnify" viewBox="0 0 375 374.999991" height="500" preserveAspectRatio="xMidYMid meet" version="1.0"><defs><g/></defs><g fill="#000000" fill-opacity="1"><g transform="translate(21.01757, 239.989134)"><g><path d="M 88.625 0 L 88.625 -70.796875 C 88.625 -79.367188 86.722656 -85.3125 82.921875 -88.625 C 79.128906 -91.9375 73.859375 -93.59375 67.109375 -93.59375 L 15.625 -93.59375 L 15.625 -108.859375 L 68.21875 -108.859375 C 80.71875 -108.859375 90 -106.097656 96.0625 -100.578125 C 102.132812 -95.066406 105.171875 -86.242188 105.171875 -74.109375 L 105.171875 0 Z M 15.625 0 L 15.625 -65.09375 L 32.171875 -65.09375 L 32.171875 0 Z M 15.625 0 "/></g></g></g><g fill="#000000" fill-opacity="1"><g transform="translate(140.900876, 239.989134)"><g><path d="M 15.625 0 L 15.625 -108.859375 L 32.171875 -108.859375 L 32.171875 0 Z M 15.625 0 "/></g></g></g><g fill="#000000" fill-opacity="1"><g transform="translate(188.707098, 239.989134)"><g><path d="M 88.625 0 L 88.625 -70.796875 C 88.625 -79.367188 86.722656 -85.3125 82.921875 -88.625 C 79.128906 -91.9375 73.859375 -93.59375 67.109375 -93.59375 L 15.625 -93.59375 L 15.625 -108.859375 L 68.21875 -108.859375 C 80.71875 -108.859375 90 -106.097656 96.0625 -100.578125 C 102.132812 -95.066406 105.171875 -86.242188 105.171875 -74.109375 L 105.171875 0 Z M 15.625 0 L 15.625 -65.09375 L 32.171875 -65.09375 L 32.171875 0 Z M 15.625 0 "/></g></g></g><g fill="#000000" fill-opacity="1"><g transform="translate(308.590404, 239.989134)"><g><path d="M 13.796875 -39.171875 L 13.796875 -108.859375 L 30.34375 -108.859375 L 30.34375 -55.71875 L 22.0625 -39.171875 Z M 13.796875 -39.171875 "/></g></g></g></svg>